<?xml version="1.0" encoding="UTF-8" standalone="no"?>
<svg
   xmlns:dc="http://purl.org/dc/elements/1.1/"
   xmlns:cc="http://creativecommons.org/ns#"
   xmlns:rdf="http://www.w3.org/1999/02/22-rdf-syntax-ns#"
   xmlns:svg="http://www.w3.org/2000/svg"
   xmlns="http://www.w3.org/2000/svg"
   xmlns:sodipodi="http://sodipodi.sourceforge.net/DTD/sodipodi-0.dtd"
   xmlns:inkscape="http://www.inkscape.org/namespaces/inkscape"
   fill-opacity="1"
   color-rendering="auto"
   color-interpolation="auto"
   stroke="black"
   text-rendering="auto"
   stroke-linecap="square"
   width="439"
   stroke-miterlimit="10"
   stroke-opacity="1"
   shape-rendering="auto"
   fill="black"
   stroke-dasharray="none"
   font-weight="normal"
   stroke-width="1"
   height="197"
   font-family="'Dialog'"
   font-style="normal"
   stroke-linejoin="miter"
   font-size="12"
   stroke-dashoffset="0"
   image-rendering="auto"
   id="svg2"
   version="1.1"
   inkscape:version="0.48.2 r9819"
   sodipodi:docname="op-based-repl.svg">
  <metadata
     id="metadata152">
    <rdf:RDF>
      <cc:Work
         rdf:about="">
        <dc:format>image/svg+xml</dc:format>
        <dc:type
           rdf:resource="http://purl.org/dc/dcmitype/StillImage" />
      </cc:Work>
    </rdf:RDF>
  </metadata>
  <sodipodi:namedview
     pagecolor="#ffffff"
     bordercolor="#666666"
     borderopacity="1"
     objecttolerance="10"
     gridtolerance="10"
     guidetolerance="10"
     inkscape:pageopacity="0"
     inkscape:pageshadow="2"
     inkscape:window-width="1280"
     inkscape:window-height="949"
     id="namedview150"
     showgrid="false"
     inkscape:zoom="1.9908519"
     inkscape:cx="222.41365"
     inkscape:cy="48.972984"
     inkscape:window-x="0"
     inkscape:window-y="24"
     inkscape:window-maximized="1"
     inkscape:current-layer="g5" />
  <!--Generated by ySVG-->
  <defs
     id="genericDefs" />
  <g
     id="g5">
    <defs
       id="defs1">
      <clipPath
         clipPathUnits="userSpaceOnUse"
         id="clipPath1">
        <path
           d="M0 0 L439 0 L439 197 L0 197 L0 0 Z"
           id="path9" />
      </clipPath>
      <clipPath
         clipPathUnits="userSpaceOnUse"
         id="clipPath2">
        <path
           d="M136 139 L575 139 L575 336 L136 336 L136 139 Z"
           id="path12" />
      </clipPath>
    </defs>
    <g
       fill="white"
       transform="translate(-136,-139)"
       stroke="white"
       id="g14">
      <rect
         x="136"
         width="439"
         height="197"
         y="139"
         clip-path="url(#clipPath2)"
         stroke="none"
         id="rect16" />
    </g>
    <g
       font-size="16"
       stroke-miterlimit="1.45"
       font-family="sans-serif"
       transform="matrix(1,0,0,1,-136,-139)"
       stroke-linecap="butt"
       id="g18">
      <text
         x="138.4"
         xml:space="preserve"
         y="156.2516"
         clip-path="url(#clipPath2)"
         stroke="none"
         id="text20">s</text>
      <ellipse
         clip-path="url(#clipPath2)"
         fill="none"
         stroke-dasharray="6,2"
         rx="41.4"
         cx="177.8"
         ry="98.2"
         cy="237.6"
         id="ellipse22"
         d="m 219.2,237.60001 c 0,54.23436 -18.53541,98.19999 -41.4,98.19999 -22.86459,0 -41.4,-43.96563 -41.4,-98.19999 0,-54.23436 18.53541,-98.2 41.4,-98.2 22.86459,0 41.4,43.96564 41.4,98.2 z" />
    </g>
    <g
       fill="rgb(89,129,170)"
       transform="matrix(1,0,0,1,-136,-139)"
       stroke="rgb(89,129,170)"
       id="g24">
      <circle
         r="5.72"
         clip-path="url(#clipPath2)"
         cx="279.84"
         cy="176"
         stroke="none"
         id="circle26"
         d="m 285.56,176 c 0,3.15907 -2.56094,5.72 -5.72,5.72 -3.15907,0 -5.72,-2.56093 -5.72,-5.72 0,-3.15907 2.56093,-5.72 5.72,-5.72 3.15906,0 5.72,2.56093 5.72,5.72 z" />
    </g>
    <g
       font-size="16"
       stroke-linecap="butt"
       transform="matrix(1,0,0,1,-136,-139)"
       fill="rgb(89,129,170)"
       font-family="'DejaVu Sans'"
       stroke="rgb(89,129,170)"
       stroke-miterlimit="1.45"
       id="g28">
      <text
         x="218.3048"
         xml:space="preserve"
         y="164.5066"
         clip-path="url(#clipPath2)"
         stroke="none"
         id="text30">s<tspan
   style="font-size:65%;baseline-shift:sub"
   id="tspan3135">1</tspan>.<tspan
   style="font-style:italic"
   id="tspan3070">t</tspan>(a); s<tspan
   style="font-size:65%;baseline-shift:sub"
   id="tspan3137">1</tspan>.<tspan
   style="font-style:italic"
   id="tspan3072">u</tspan>(a')</text>
      <circle
         fill="none"
         r="5.72"
         clip-path="url(#clipPath2)"
         cx="279.84"
         cy="176"
         id="circle32"
         d="m 285.56,176 c 0,3.15907 -2.56094,5.72 -5.72,5.72 -3.15907,0 -5.72,-2.56093 -5.72,-5.72 0,-3.15907 2.56093,-5.72 5.72,-5.72 3.15906,0 5.72,2.56093 5.72,5.72 z" />
    </g>
    <g
       fill="rgb(89,129,170)"
       transform="matrix(1,0,0,1,-136,-139)"
       stroke="rgb(89,129,170)"
       id="g34">
      <circle
         r="5.72"
         clip-path="url(#clipPath2)"
         cx="501.68"
         cy="176"
         stroke="none"
         id="circle36"
         d="m 507.39999,176 c 0,3.15907 -2.56093,5.72 -5.72,5.72 -3.15907,0 -5.72,-2.56093 -5.72,-5.72 0,-3.15907 2.56093,-5.72 5.72,-5.72 3.15907,0 5.72,2.56093 5.72,5.72 z" />
    </g>
    <g
       font-size="16"
       stroke-linecap="butt"
       transform="matrix(1,0,0,1,-136,-139)"
       fill="rgb(89,129,170)"
       font-family="'DejaVu Sans'"
       stroke="rgb(89,129,170)"
       stroke-miterlimit="1.45"
       id="g38">
      <text
         x="471.2894"
         xml:space="preserve"
         y="164.5066"
         clip-path="url(#clipPath2)"
         stroke="none"
         id="text40">s<tspan
   style="font-size:65%;baseline-shift:sub"
   id="tspan3143">1</tspan>.<tspan
   style="font-style:italic"
   id="tspan3074">u</tspan>(<tspan
   style="fill:#488748"
   id="tspan3155">b'</tspan>)</text>
      <circle
         fill="none"
         r="5.72"
         clip-path="url(#clipPath2)"
         cx="501.68"
         cy="176"
         id="circle42"
         d="m 507.39999,176 c 0,3.15907 -2.56093,5.72 -5.72,5.72 -3.15907,0 -5.72,-2.56093 -5.72,-5.72 0,-3.15907 2.56093,-5.72 5.72,-5.72 3.15907,0 5.72,2.56093 5.72,5.72 z" />
    </g>
    <g
       fill="rgb(72,135,72)"
       transform="matrix(1,0,0,1,-136,-139)"
       stroke="rgb(72,135,72)"
       id="g44">
      <circle
         r="5.72"
         clip-path="url(#clipPath2)"
         cx="279.84"
         cy="236"
         stroke="none"
         id="circle46"
         d="m 285.56,236 c 0,3.15907 -2.56094,5.72 -5.72,5.72 -3.15907,0 -5.72,-2.56093 -5.72,-5.72 0,-3.15907 2.56093,-5.72 5.72,-5.72 3.15906,0 5.72,2.56093 5.72,5.72 z" />
    </g>
    <g
       font-size="16"
       stroke-linecap="butt"
       transform="matrix(1,0,0,1,-136,-139)"
       fill="rgb(72,135,72)"
       font-family="'DejaVu Sans'"
       stroke="rgb(72,135,72)"
       stroke-miterlimit="1.45"
       id="g48">
      <text
         x="250.8869"
         xml:space="preserve"
         y="258.5716"
         clip-path="url(#clipPath2)"
         stroke="none"
         id="text50">s<tspan
   style="font-size:65%;baseline-shift:sub"
   id="tspan3139">2</tspan>.<tspan
   style="font-style:italic"
   id="tspan3078">t</tspan>(b);</text>
      <text
         x="249.4494"
         xml:space="preserve"
         y="277.1966"
         clip-path="url(#clipPath2)"
         stroke="none"
         id="text52">s<tspan
   style="font-size:65%;baseline-shift:sub"
   id="tspan3141">2</tspan>.<tspan
   style="font-style:italic"
   id="tspan3080">u</tspan>(b')</text>
      <circle
         fill="none"
         r="5.72"
         clip-path="url(#clipPath2)"
         cx="279.84"
         cy="236"
         id="circle54"
         d="m 285.56,236 c 0,3.15907 -2.56094,5.72 -5.72,5.72 -3.15907,0 -5.72,-2.56093 -5.72,-5.72 0,-3.15907 2.56093,-5.72 5.72,-5.72 3.15906,0 5.72,2.56093 5.72,5.72 z" />
    </g>
    <g
       fill="rgb(72,135,72)"
       transform="matrix(1,0,0,1,-136,-139)"
       stroke="rgb(72,135,72)"
       id="g56">
      <circle
         r="5.72"
         clip-path="url(#clipPath2)"
         cx="501.68"
         cy="236"
         stroke="none"
         id="circle58"
         d="m 507.39999,236 c 0,3.15907 -2.56093,5.72 -5.72,5.72 -3.15907,0 -5.72,-2.56093 -5.72,-5.72 0,-3.15907 2.56093,-5.72 5.72,-5.72 3.15907,0 5.72,2.56093 5.72,5.72 z" />
    </g>
    <g
       font-size="16"
       stroke-linecap="butt"
       transform="matrix(1,0,0,1,-136,-139)"
       fill="rgb(72,135,72)"
       font-family="sans-serif"
       stroke="rgb(72,135,72)"
       stroke-miterlimit="1.45"
       id="g60">
      <text
         x="471.4651"
         xml:space="preserve"
         y="258.5716"
         clip-path="url(#clipPath2)"
         stroke="none"
         id="text62">s<tspan
   style="font-size:65%;baseline-shift:sub"
   id="tspan3145">2</tspan>.<tspan
   style="font-style:italic"
   id="tspan3076">u</tspan>(<tspan
   style="fill:#5981aa"
   id="tspan3151">a'</tspan>)</text>
      <circle
         fill="none"
         r="5.72"
         clip-path="url(#clipPath2)"
         cx="501.68"
         cy="236"
         id="circle64"
         d="m 507.39999,236 c 0,3.15907 -2.56093,5.72 -5.72,5.72 -3.15907,0 -5.72,-2.56093 -5.72,-5.72 0,-3.15907 2.56093,-5.72 5.72,-5.72 3.15907,0 5.72,2.56093 5.72,5.72 z" />
    </g>
    <g
       fill="rgb(255,127,42)"
       transform="matrix(1,0,0,1,-136,-139)"
       stroke="rgb(255,127,42)"
       id="g66">
      <circle
         r="5.72"
         clip-path="url(#clipPath2)"
         cx="483.248"
         cy="296"
         stroke="none"
         id="circle68"
         d="m 488.96799,296 c 0,3.15907 -2.56094,5.72 -5.72,5.72 -3.15907,0 -5.72,-2.56093 -5.72,-5.72 0,-3.15907 2.56093,-5.72 5.72,-5.72 3.15906,0 5.72,2.56093 5.72,5.72 z" />
    </g>
    <g
       font-size="16"
       stroke-linecap="butt"
       transform="matrix(1,0,0,1,-136,-139)"
       fill="rgb(255,127,42)"
       font-family="'DejaVu Sans'"
       stroke="rgb(255,127,42)"
       stroke-miterlimit="1.45"
       id="g70">
      <text
         x="453.0331"
         xml:space="preserve"
         y="318.5716"
         clip-path="url(#clipPath2)"
         stroke="none"
         id="text72">s<tspan
   style="font-size:65%;baseline-shift:sub"
   id="tspan3149">3</tspan>.<tspan
   style="font-style:italic"
   id="tspan3084">u</tspan>(<tspan
   style="fill:#5981aa"
   id="tspan3153">a'</tspan>)</text>
      <circle
         fill="none"
         r="5.72"
         clip-path="url(#clipPath2)"
         cx="483.248"
         cy="296"
         id="circle74"
         d="m 488.96799,296 c 0,3.15907 -2.56094,5.72 -5.72,5.72 -3.15907,0 -5.72,-2.56093 -5.72,-5.72 0,-3.15907 2.56093,-5.72 5.72,-5.72 3.15906,0 5.72,2.56093 5.72,5.72 z" />
      <text
         fill="rgb(89,129,170)"
         x="167.7422"
         xml:space="preserve"
         y="181.5391"
         clip-path="url(#clipPath2)"
         stroke="none"
         id="text76">s<tspan
   style="font-size:65%;baseline-shift:sub"
   id="tspan3129">1</tspan></text>
    </g>
    <g
       fill="rgb(89,129,170)"
       stroke-width="2"
       stroke-miterlimit="1.45"
       transform="matrix(1,0,0,1,-136,-139)"
       stroke-linecap="butt"
       stroke="rgb(89,129,170)"
       id="g78">
      <circle
         fill="none"
         r="23"
         clip-path="url(#clipPath2)"
         cx="177"
         cy="176"
         id="circle80"
         d="m 200,176 c 0,12.70255 -10.29745,23 -23,23 -12.70255,0 -23,-10.29745 -23,-23 0,-12.70255 10.29745,-23 23,-23 12.70255,0 23,10.29745 23,23 z" />
    </g>
    <g
       font-size="16"
       stroke-linecap="butt"
       transform="matrix(1,0,0,1,-136,-139)"
       fill="rgb(72,135,72)"
       font-family="'DejaVu Sans'"
       stroke="rgb(72,135,72)"
       stroke-miterlimit="1.45"
       id="g82">
      <text
         x="167.7422"
         xml:space="preserve"
         y="241.5391"
         clip-path="url(#clipPath2)"
         stroke="none"
         id="text84">s<tspan
   style="font-size:65%;baseline-shift:sub"
   id="tspan3131">2</tspan></text>
      <circle
         fill="none"
         stroke-width="2"
         r="23"
         clip-path="url(#clipPath2)"
         cx="177"
         cy="236"
         id="circle86"
         d="m 200,236 c 0,12.70255 -10.29745,23 -23,23 -12.70255,0 -23,-10.29745 -23,-23 0,-12.70255 10.29745,-23 23,-23 12.70255,0 23,10.29745 23,23 z" />
      <text
         fill="rgb(255,127,42)"
         x="167.7422"
         xml:space="preserve"
         y="301.5391"
         clip-path="url(#clipPath2)"
         stroke="none"
         id="text88">s<tspan
   style="font-size:65%;baseline-shift:sub"
   id="tspan3133">3</tspan></text>
    </g>
    <g
       fill="rgb(255,127,42)"
       stroke-width="2"
       stroke-miterlimit="1.45"
       transform="matrix(1,0,0,1,-136,-139)"
       stroke-linecap="butt"
       stroke="rgb(255,127,42)"
       id="g90">
      <circle
         fill="none"
         r="23"
         clip-path="url(#clipPath2)"
         cx="177"
         cy="296"
         id="circle92"
         d="m 200,296 c 0,12.70255 -10.29745,23 -23,23 -12.70255,0 -23,-10.29745 -23,-23 0,-12.70255 10.29745,-23 23,-23 12.70255,0 23,10.29745 23,23 z" />
      <circle
         stroke-linecap="square"
         clip-path="url(#clipPath2)"
         r="5.72"
         cx="407.072"
         cy="296"
         stroke="none"
         stroke-width="1"
         stroke-miterlimit="10"
         id="circle94"
         d="m 412.79199,296 c 0,3.15907 -2.56093,5.72 -5.72,5.72 -3.15907,0 -5.72,-2.56093 -5.72,-5.72 0,-3.15907 2.56093,-5.72 5.72,-5.72 3.15907,0 5.72,2.56093 5.72,5.72 z" />
      <text
         x="376.6814"
         font-size="16"
         y="318.5716"
         clip-path="url(#clipPath2)"
         font-family="'DejaVu Sans'"
         stroke="none"
         stroke-width="1"
         xml:space="preserve"
         id="text96">s<tspan
   style="font-size:65%;baseline-shift:sub"
   id="tspan3147">3</tspan>.<tspan
   style="font-style:italic"
   id="tspan3082">u</tspan>(<tspan
   style="fill:#488748"
   id="tspan3157">b'</tspan>)</text>
      <circle
         fill="none"
         stroke-width="1"
         r="5.72"
         clip-path="url(#clipPath2)"
         cx="407.072"
         cy="296"
         id="circle98"
         d="m 412.79199,296 c 0,3.15907 -2.56093,5.72 -5.72,5.72 -3.15907,0 -5.72,-2.56093 -5.72,-5.72 0,-3.15907 2.56093,-5.72 5.72,-5.72 3.15907,0 5.72,2.56093 5.72,5.72 z" />
      <path
         fill="none"
         stroke-width="1"
         d="M285.3616 234.5066 L488.4359 179.5821"
         clip-path="url(#clipPath2)"
         stroke="black"
         id="path100" />
      <path
         fill="black"
         stroke-width="1"
         d="M496.1584 177.4934 L483.2692 175.7998 L487.4706 179.8432 L485.88 185.453 Z"
         clip-path="url(#clipPath2)"
         stroke="none"
         id="path102" />
    </g>
    <g
       font-size="16"
       stroke-linecap="butt"
       transform="matrix(1,0,0,1,-136,-139)"
       fill="rgb(72,135,72)"
       font-family="sans-serif"
       stroke="rgb(72,135,72)"
       stroke-miterlimit="1.45"
       id="g104">
      <text
         x="454.9807"
         xml:space="preserve"
         y="208.023"
         clip-path="url(#clipPath2)"
         stroke="none"
         id="text106">b'</text>
    </g>
    <g
       stroke-linecap="butt"
       transform="matrix(1,0,0,1,-136,-139)"
       stroke-miterlimit="1.45"
       id="g108">
      <path
         fill="none"
         d="M285.3616 177.4934 L488.4359 232.4179"
         clip-path="url(#clipPath2)"
         id="path110" />
      <path
         d="M496.1584 234.5066 L485.88 226.547 L487.4706 232.1568 L483.2692 236.2002 Z"
         clip-path="url(#clipPath2)"
         stroke="none"
         id="path112" />
    </g>
    <g
       font-size="16"
       stroke-linecap="butt"
       transform="matrix(1,0,0,1,-136,-139)"
       fill="rgb(89,129,170)"
       font-family="sans-serif"
       stroke="rgb(89,129,170)"
       stroke-miterlimit="1.45"
       id="g114">
      <text
         x="412.3163"
         xml:space="preserve"
         y="233.0642"
         clip-path="url(#clipPath2)"
         stroke="none"
         id="text116">a'</text>
    </g>
    <g
       stroke-linecap="butt"
       transform="matrix(1,0,0,1,-136,-139)"
       stroke-miterlimit="1.45"
       id="g118">
      <path
         fill="none"
         d="M284.7666 178.9064 L471.4311 289.0287"
         clip-path="url(#clipPath2)"
         id="path120" />
      <path
         d="M478.3214 293.0936 L470.5266 282.6897 L470.5698 288.5205 L465.4454 291.3026 Z"
         clip-path="url(#clipPath2)"
         stroke="none"
         id="path122" />
    </g>
    <g
       font-size="16"
       stroke-linecap="butt"
       transform="matrix(1,0,0,1,-136,-139)"
       fill="rgb(89,129,170)"
       font-family="sans-serif"
       stroke="rgb(89,129,170)"
       stroke-miterlimit="1.45"
       id="g124">
      <text
         x="374.4424"
         xml:space="preserve"
         y="260.221"
         clip-path="url(#clipPath2)"
         stroke="none"
         id="text126">a'</text>
    </g>
    <g
       fill="rgb(255,127,42)"
       stroke-width="2"
       stroke-miterlimit="1.45"
       transform="matrix(1,0,0,1,-136,-139)"
       stroke-linecap="butt"
       stroke="rgb(255,127,42)"
       id="g128">
      <path
         fill="none"
         d="M230 296 L536 296"
         clip-path="url(#clipPath2)"
         id="path130" />
      <path
         d="M545 296 L531.5 290.375 L534.875 296 L531.5 301.625 Z"
         clip-path="url(#clipPath2)"
         stroke="none"
         id="path132" />
      <path
         fill="none"
         d="M230 236 L536 236"
         clip-path="url(#clipPath2)"
         stroke="rgb(72,135,72)"
         id="path134" />
      <path
         fill="rgb(72,135,72)"
         d="M545 236 L531.5 230.375 L534.875 236 L531.5 241.625 Z"
         clip-path="url(#clipPath2)"
         stroke="none"
         id="path136" />
      <path
         fill="none"
         d="M230 176 L536 176"
         clip-path="url(#clipPath2)"
         stroke="rgb(89,129,170)"
         id="path138" />
      <path
         fill="rgb(89,129,170)"
         d="M545 176 L531.5 170.375 L534.875 176 L531.5 181.625 Z"
         clip-path="url(#clipPath2)"
         stroke="none"
         id="path140" />
      <path
         fill="none"
         stroke-width="1"
         d="M285.0136 238.4398 L394.6626 290.148"
         clip-path="url(#clipPath2)"
         stroke="black"
         id="path142" />
      <path
         fill="black"
         stroke-width="1"
         d="M401.8984 293.5603 L393.1774 283.9195 L393.7581 289.7215 L388.9121 292.9643 Z"
         clip-path="url(#clipPath2)"
         stroke="none"
         id="path144" />
    </g>
    <g
       font-size="16"
       stroke-linecap="butt"
       transform="matrix(1,0,0,1,-136,-139)"
       fill="rgb(72,135,72)"
       font-family="sans-serif"
       stroke="rgb(72,135,72)"
       stroke-miterlimit="1.45"
       id="g146">
      <text
         x="336.1786"
         xml:space="preserve"
         y="289.2266"
         clip-path="url(#clipPath2)"
         stroke="none"
         id="text148">b'</text>
    </g>
  </g>
</svg>
