<?xml version="1.0" encoding="UTF-8" standalone="no"?>
<svg
   xmlns:dc="http://purl.org/dc/elements/1.1/"
   xmlns:cc="http://creativecommons.org/ns#"
   xmlns:rdf="http://www.w3.org/1999/02/22-rdf-syntax-ns#"
   xmlns:svg="http://www.w3.org/2000/svg"
   xmlns="http://www.w3.org/2000/svg"
   xmlns:sodipodi="http://sodipodi.sourceforge.net/DTD/sodipodi-0.dtd"
   xmlns:inkscape="http://www.inkscape.org/namespaces/inkscape"
   fill-opacity="1"
   color-rendering="auto"
   color-interpolation="auto"
   stroke="black"
   text-rendering="auto"
   stroke-linecap="square"
   width="813"
   stroke-miterlimit="10"
   stroke-opacity="1"
   shape-rendering="auto"
   fill="black"
   stroke-dasharray="none"
   font-weight="normal"
   stroke-width="1"
   height="281"
   font-family="'Dialog'"
   font-style="normal"
   stroke-linejoin="miter"
   font-size="12"
   stroke-dashoffset="0"
   image-rendering="auto"
   id="svg2"
   version="1.1"
   inkscape:version="0.48.2 r9819"
   sodipodi:docname="or-set-with-delta.svg">
  <metadata
     id="metadata192">
    <rdf:RDF>
      <cc:Work
         rdf:about="">
        <dc:format>image/svg+xml</dc:format>
        <dc:type
           rdf:resource="http://purl.org/dc/dcmitype/StillImage" />
      </cc:Work>
    </rdf:RDF>
  </metadata>
  <sodipodi:namedview
     pagecolor="#ffffff"
     bordercolor="#666666"
     borderopacity="1"
     objecttolerance="10"
     gridtolerance="10"
     guidetolerance="10"
     inkscape:pageopacity="0"
     inkscape:pageshadow="2"
     inkscape:window-width="1280"
     inkscape:window-height="949"
     id="namedview190"
     showgrid="false"
     inkscape:zoom="1.075011"
     inkscape:cx="444.33679"
     inkscape:cy="146.45717"
     inkscape:window-x="0"
     inkscape:window-y="24"
     inkscape:window-maximized="1"
     inkscape:current-layer="g5" />
  <!--Generated by ySVG-->
  <defs
     id="genericDefs" />
  <g
     id="g5">
    <defs
       id="defs1">
      <clipPath
         clipPathUnits="userSpaceOnUse"
         id="clipPath1">
        <path
           d="M0 0 L813 0 L813 281 L0 281 L0 0 Z"
           id="path9" />
      </clipPath>
      <clipPath
         clipPathUnits="userSpaceOnUse"
         id="clipPath2">
        <path
           d="M151 140 L964 140 L964 421 L151 421 L151 140 Z"
           id="path12" />
      </clipPath>
    </defs>
    <g
       fill="white"
       transform="translate(-151,-140)"
       stroke="white"
       id="g14">
      <rect
         x="151"
         width="813"
         height="281"
         y="140"
         clip-path="url(#clipPath2)"
         stroke="none"
         id="rect16" />
    </g>
    <g
       fill="rgb(255,127,42)"
       stroke-width="2"
       stroke-miterlimit="1.45"
       transform="matrix(1,0,0,1,-151,-140)"
       stroke-linecap="butt"
       stroke="rgb(255,127,42)"
       id="g18">
      <path
         fill="none"
         d="M250.28 376.4263 L312.488 376.4263 L312.488 376.4263 L924.35 376.4263"
         clip-path="url(#clipPath2)"
         id="path20" />
      <path
         d="M933.35 376.4263 L919.85 370.8013 L923.225 376.4263 L919.85 382.0513 Z"
         clip-path="url(#clipPath2)"
         stroke="none"
         id="path22" />
      <path
         fill="none"
         stroke-width="1"
         d="M280.4878 293.7661 L324.7976 364.786"
         clip-path="url(#clipPath2)"
         stroke="black"
         id="path24" />
      <path
         fill="black"
         stroke-width="1"
         d="M329.0322 371.5733 L326.9223 358.7457 L324.2682 363.9376 L318.4382 364.039 Z"
         clip-path="url(#clipPath2)"
         stroke="none"
         id="path26" />
      <path
         fill="none"
         d="M250.28 288.9131 L924.35 288.9131"
         clip-path="url(#clipPath2)"
         stroke="rgb(72,135,72)"
         id="path28" />
      <path
         fill="rgb(72,135,72)"
         d="M933.35 288.9131 L919.85 283.2881 L923.225 288.9131 L919.85 294.5381 Z"
         clip-path="url(#clipPath2)"
         stroke="none"
         id="path30" />
      <path
         fill="none"
         d="M250.28 201.4 L924.35 201.4"
         clip-path="url(#clipPath2)"
         stroke="rgb(89,129,170)"
         id="path32" />
      <path
         fill="rgb(89,129,170)"
         d="M933.35 201.4 L919.85 195.775 L923.225 201.4 L919.85 207.025 Z"
         clip-path="url(#clipPath2)"
         stroke="none"
         id="path34" />
      <path
         fill="none"
         stroke-width="1"
         d="M283.0708 287.8007 L705.402 204.0682"
         clip-path="url(#clipPath2)"
         stroke="black"
         id="path36" />
      <path
         fill="black"
         stroke-width="1"
         d="M713.2492 202.5124 L700.5059 199.9416 L704.421 204.2627 L702.4507 209.7507 Z"
         clip-path="url(#clipPath2)"
         stroke="none"
         id="path38" />
      <path
         fill="none"
         stroke-width="1"
         d="M309.5031 205.2137 L490.6646 367.2787"
         clip-path="url(#clipPath2)"
         stroke="black"
         id="path40" />
      <path
         fill="black"
         stroke-width="1"
         d="M496.6269 372.6125 L491.017 360.8853 L489.9193 366.6119 L484.3497 368.3382 Z"
         clip-path="url(#clipPath2)"
         stroke="none"
         id="path42" />
      <path
         fill="none"
         stroke-width="1"
         d="M505.3024 205.0399 L702.4764 367.6955"
         clip-path="url(#clipPath2)"
         stroke="black"
         id="path44" />
      <path
         fill="black"
         stroke-width="1"
         d="M708.6476 372.7863 L702.5726 361.2931 L701.7051 367.0591 L696.2091 369.0071 Z"
         clip-path="url(#clipPath2)"
         stroke="none"
         id="path46" />
    </g>
    <g
       fill="rgb(89,129,170)"
       transform="matrix(1,0,0,1,-151,-140)"
       stroke="rgb(89,129,170)"
       id="g48">
      <circle
         r="5.72"
         clip-path="url(#clipPath2)"
         cx="305.24"
         cy="201.4"
         stroke="none"
         id="circle50"
         d="m 310.95999,201.39999 c 0,3.15907 -2.56093,5.72 -5.72,5.72 -3.15907,0 -5.72,-2.56093 -5.72,-5.72 0,-3.15906 2.56093,-5.72 5.72,-5.72 3.15907,0 5.72,2.56094 5.72,5.72 z" />
    </g>
    <g
       font-size="16"
       stroke-linecap="butt"
       transform="matrix(1,0,0,1,-151,-140)"
       fill="rgb(89,129,170)"
       font-family="'DejaVu Sans'"
       stroke="rgb(89,129,170)"
       stroke-miterlimit="1.45"
       id="g52">
      <text
         x="279.0369"
         xml:space="preserve"
         y="189.9066"
         clip-path="url(#clipPath2)"
         stroke="none"
         id="text54"><tspan
   style="font-style:italic"
   id="tspan3169">add</tspan>(a)</text>
      <circle
         fill="none"
         r="5.72"
         clip-path="url(#clipPath2)"
         cx="305.24"
         cy="201.4"
         id="circle56"
         d="m 310.95999,201.39999 c 0,3.15907 -2.56093,5.72 -5.72,5.72 -3.15907,0 -5.72,-2.56093 -5.72,-5.72 0,-3.15906 2.56093,-5.72 5.72,-5.72 3.15907,0 5.72,2.56094 5.72,5.72 z" />
    </g>
    <g
       fill="rgb(72,135,72)"
       transform="matrix(1,0,0,1,-151,-140)"
       stroke="rgb(72,135,72)"
       id="g58">
      <circle
         r="5.72"
         clip-path="url(#clipPath2)"
         cx="277.46"
         cy="288.9131"
         stroke="none"
         id="circle60"
         d="m 283.17999,288.91309 c 0,3.15906 -2.56093,5.72 -5.72,5.72 -3.15907,0 -5.72,-2.56094 -5.72,-5.72 0,-3.15907 2.56093,-5.72 5.72,-5.72 3.15907,0 5.72,2.56093 5.72,5.72 z" />
    </g>
    <g
       font-size="16"
       stroke-linecap="butt"
       transform="matrix(1,0,0,1,-151,-140)"
       fill="rgb(72,135,72)"
       font-family="'DejaVu Sans'"
       stroke="rgb(72,135,72)"
       stroke-miterlimit="1.45"
       id="g62">
      <text
         x="251.2569"
         xml:space="preserve"
         y="277.4197"
         clip-path="url(#clipPath2)"
         stroke="none"
         id="text64"><tspan
   style="font-style:italic"
   id="tspan3175">add</tspan>(a)</text>
      <circle
         fill="none"
         r="5.72"
         clip-path="url(#clipPath2)"
         cx="277.46"
         cy="288.9131"
         id="circle66"
         d="m 283.17999,288.91309 c 0,3.15906 -2.56093,5.72 -5.72,5.72 -3.15907,0 -5.72,-2.56094 -5.72,-5.72 0,-3.15907 2.56093,-5.72 5.72,-5.72 3.15907,0 5.72,2.56093 5.72,5.72 z" />
      <text
         fill="rgb(89,129,170)"
         x="162.5325"
         xml:space="preserve"
         y="188.3141"
         clip-path="url(#clipPath2)"
         stroke="none"
         id="text68">T=[0,0,0]</text>
      <text
         fill="rgb(89,129,170)"
         x="162.5325"
         xml:space="preserve"
         y="206.9391"
         clip-path="url(#clipPath2)"
         stroke="none"
         id="text70">A={}</text>
      <text
         fill="rgb(89,129,170)"
         x="162.5325"
         xml:space="preserve"
         y="225.5641"
         clip-path="url(#clipPath2)"
         stroke="none"
         id="text72">R={}</text>
    </g>
    <g
       fill="rgb(255,127,42)"
       transform="matrix(1,0,0,1,-151,-140)"
       stroke="rgb(255,127,42)"
       id="g74">
      <circle
         r="5.72"
         clip-path="url(#clipPath2)"
         cx="332.06"
         cy="376.4263"
         stroke="none"
         id="circle76"
         d="m 337.78,376.4263 c 0,3.15907 -2.56093,5.72 -5.72,5.72 -3.15907,0 -5.72,-2.56093 -5.72,-5.72 0,-3.15907 2.56093,-5.72 5.72,-5.72 3.15907,0 5.72,2.56093 5.72,5.72 z" />
    </g>
    <g
       font-size="16"
       stroke-linecap="butt"
       transform="matrix(1,0,0,1,-151,-140)"
       fill="rgb(255,127,42)"
       font-family="'DejaVu Sans'"
       stroke="rgb(255,127,42)"
       stroke-miterlimit="1.45"
       id="g78">
      <text
         x="299.8139"
         xml:space="preserve"
         y="398.9978"
         clip-path="url(#clipPath2)"
         stroke="none"
         id="text80"><tspan
   style="font-style:italic"
   id="tspan3177">merge</tspan>()</text>
      <circle
         fill="none"
         r="5.72"
         clip-path="url(#clipPath2)"
         cx="332.06"
         cy="376.4263"
         id="circle82"
         d="m 337.78,376.4263 c 0,3.15907 -2.56093,5.72 -5.72,5.72 -3.15907,0 -5.72,-2.56093 -5.72,-5.72 0,-3.15907 2.56093,-5.72 5.72,-5.72 3.15907,0 5.72,2.56093 5.72,5.72 z" />
      <text
         fill="rgb(89,129,170)"
         x="361.5744"
         xml:space="preserve"
         y="157.0966"
         clip-path="url(#clipPath2)"
         stroke="none"
         id="text84">T=[1,0,0]</text>
      <text
         fill="rgb(89,129,170)"
         x="361.5744"
         xml:space="preserve"
         y="175.7216"
         clip-path="url(#clipPath2)"
         stroke="none"
         id="text86">A={(a,1,1)}</text>
      <text
         fill="rgb(89,129,170)"
         x="361.5744"
         xml:space="preserve"
         y="194.3466"
         clip-path="url(#clipPath2)"
         stroke="none"
         id="text88">R={}</text>
      <text
         fill="rgb(72,135,72)"
         x="162.5325"
         xml:space="preserve"
         y="275.8272"
         clip-path="url(#clipPath2)"
         stroke="none"
         id="text90">T=[0,0,0]</text>
      <text
         fill="rgb(72,135,72)"
         x="162.5325"
         xml:space="preserve"
         y="294.4522"
         clip-path="url(#clipPath2)"
         stroke="none"
         id="text92">A={}</text>
      <text
         fill="rgb(72,135,72)"
         x="162.5325"
         xml:space="preserve"
         y="313.0772"
         clip-path="url(#clipPath2)"
         stroke="none"
         id="text94">R={}</text>
      <text
         x="162.5325"
         xml:space="preserve"
         y="363.3403"
         clip-path="url(#clipPath2)"
         stroke="none"
         id="text96">T=[0,0,0]</text>
      <text
         x="162.5325"
         xml:space="preserve"
         y="381.9653"
         clip-path="url(#clipPath2)"
         stroke="none"
         id="text98">A={}</text>
      <text
         x="162.5325"
         xml:space="preserve"
         y="400.5903"
         clip-path="url(#clipPath2)"
         stroke="none"
         id="text100">R={}</text>
    </g>
    <g
       fill="rgb(89,129,170)"
       transform="matrix(1,0,0,1,-151,-140)"
       stroke="rgb(89,129,170)"
       id="g102">
      <circle
         r="5.72"
         clip-path="url(#clipPath2)"
         cx="500.89"
         cy="201.4"
         stroke="none"
         id="circle104"
         d="m 506.61001,201.39999 c 0,3.15907 -2.56093,5.72 -5.72,5.72 -3.15906,0 -5.72,-2.56093 -5.72,-5.72 0,-3.15906 2.56094,-5.72 5.72,-5.72 3.15907,0 5.72,2.56094 5.72,5.72 z" />
    </g>
    <g
       font-size="16"
       stroke-linecap="butt"
       transform="matrix(1,0,0,1,-151,-140)"
       fill="rgb(89,129,170)"
       font-family="'DejaVu Sans'"
       stroke="rgb(89,129,170)"
       stroke-miterlimit="1.45"
       id="g106">
      <text
         x="473.9291"
         xml:space="preserve"
         y="189.9066"
         clip-path="url(#clipPath2)"
         stroke="none"
         id="text108"><tspan
   style="font-style:italic"
   id="tspan3171">rmv</tspan>(a)</text>
      <circle
         fill="none"
         r="5.72"
         clip-path="url(#clipPath2)"
         cx="500.89"
         cy="201.4"
         id="circle110"
         d="m 506.61001,201.39999 c 0,3.15907 -2.56093,5.72 -5.72,5.72 -3.15906,0 -5.72,-2.56093 -5.72,-5.72 0,-3.15906 2.56094,-5.72 5.72,-5.72 3.15907,0 5.72,2.56094 5.72,5.72 z" />
      <text
         x="548.4028"
         xml:space="preserve"
         y="157.0966"
         clip-path="url(#clipPath2)"
         stroke="none"
         id="text112">T=[2,0,0]</text>
      <text
         x="548.4028"
         xml:space="preserve"
         y="175.7216"
         clip-path="url(#clipPath2)"
         stroke="none"
         id="text114">A={(a,1,1)}</text>
      <text
         x="548.4028"
         xml:space="preserve"
         y="194.3466"
         clip-path="url(#clipPath2)"
         stroke="none"
         id="text116">R={(a,1,1,2,1)}</text>
    </g>
    <g
       fill="rgb(89,129,170)"
       transform="matrix(1,0,0,1,-151,-140)"
       stroke="rgb(89,129,170)"
       id="g118">
      <circle
         r="5.72"
         clip-path="url(#clipPath2)"
         cx="718.86"
         cy="201.4"
         stroke="none"
         id="circle120"
         d="m 724.57999,201.39999 c 0,3.15907 -2.56094,5.72 -5.72,5.72 -3.15907,0 -5.72,-2.56093 -5.72,-5.72 0,-3.15906 2.56093,-5.72 5.72,-5.72 3.15906,0 5.72,2.56094 5.72,5.72 z" />
    </g>
    <g
       font-size="16"
       stroke-linecap="butt"
       transform="matrix(1,0,0,1,-151,-140)"
       fill="rgb(89,129,170)"
       font-family="'DejaVu Sans'"
       stroke="rgb(89,129,170)"
       stroke-miterlimit="1.45"
       id="g122">
      <text
         x="686.6139"
         xml:space="preserve"
         y="189.9066"
         clip-path="url(#clipPath2)"
         stroke="none"
         id="text124"><tspan
   style="font-style:italic"
   id="tspan3173">merge</tspan>()</text>
      <circle
         fill="none"
         r="5.72"
         clip-path="url(#clipPath2)"
         cx="718.86"
         cy="201.4"
         id="circle126"
         d="m 724.57999,201.39999 c 0,3.15907 -2.56094,5.72 -5.72,5.72 -3.15907,0 -5.72,-2.56093 -5.72,-5.72 0,-3.15906 2.56093,-5.72 5.72,-5.72 3.15906,0 5.72,2.56094 5.72,5.72 z" />
      <text
         x="767.0012"
         xml:space="preserve"
         y="157.0966"
         clip-path="url(#clipPath2)"
         stroke="none"
         id="text128">T=[2,1,0]</text>
      <text
         x="767.0012"
         xml:space="preserve"
         y="175.7216"
         clip-path="url(#clipPath2)"
         stroke="none"
         id="text130">A={(a,1,1),(a,1,2)}</text>
      <text
         x="767.0012"
         xml:space="preserve"
         y="194.3466"
         clip-path="url(#clipPath2)"
         stroke="none"
         id="text132">R={(a,1,1,2,1)}</text>
    </g>
    <g
       fill="white"
       transform="matrix(1,0,0,1,-151,-140)"
       stroke="white"
       id="g134">
      <rect
         x="331.4444"
         width="101.5312"
         height="59.875"
         y="224.7581"
         clip-path="url(#clipPath2)"
         stroke="none"
         id="rect136" />
    </g>
    <g
       font-size="16"
       stroke-linecap="butt"
       transform="matrix(1,0,0,1,-151,-140)"
       fill="rgb(72,135,72)"
       font-family="'DejaVu Sans'"
       stroke="rgb(72,135,72)"
       stroke-miterlimit="1.45"
       id="g138">
      <text
         x="333.4444"
         xml:space="preserve"
         y="241.6097"
         clip-path="url(#clipPath2)"
         stroke="none"
         id="text140">T=[0,1,0]</text>
      <text
         x="333.4444"
         xml:space="preserve"
         y="260.2347"
         clip-path="url(#clipPath2)"
         stroke="none"
         id="text142">A={(a,1,2)}</text>
      <text
         x="333.4444"
         xml:space="preserve"
         y="278.8597"
         clip-path="url(#clipPath2)"
         stroke="none"
         id="text144">R={}</text>
      <text
         fill="rgb(255,127,42)"
         x="350.5944"
         xml:space="preserve"
         y="329.1228"
         clip-path="url(#clipPath2)"
         stroke="none"
         id="text146">T=[0,1,0]</text>
      <text
         fill="rgb(255,127,42)"
         x="350.5944"
         xml:space="preserve"
         y="347.7478"
         clip-path="url(#clipPath2)"
         stroke="none"
         id="text148">A={(a,1,2)}</text>
      <text
         fill="rgb(255,127,42)"
         x="350.5944"
         xml:space="preserve"
         y="366.3728"
         clip-path="url(#clipPath2)"
         stroke="none"
         id="text150">R={}</text>
    </g>
    <g
       fill="rgb(255,127,42)"
       transform="matrix(1,0,0,1,-151,-140)"
       stroke="rgb(255,127,42)"
       id="g152">
      <circle
         r="5.72"
         clip-path="url(#clipPath2)"
         cx="500.89"
         cy="376.4263"
         stroke="none"
         id="circle154"
         d="m 506.61001,376.4263 c 0,3.15907 -2.56093,5.72 -5.72,5.72 -3.15906,0 -5.72,-2.56093 -5.72,-5.72 0,-3.15907 2.56094,-5.72 5.72,-5.72 3.15907,0 5.72,2.56093 5.72,5.72 z" />
    </g>
    <g
       font-size="16"
       stroke-linecap="butt"
       transform="matrix(1,0,0,1,-151,-140)"
       fill="rgb(255,127,42)"
       font-family="'DejaVu Sans'"
       stroke="rgb(255,127,42)"
       stroke-miterlimit="1.45"
       id="g156">
      <text
         x="468.6439"
         xml:space="preserve"
         y="398.9978"
         clip-path="url(#clipPath2)"
         stroke="none"
         id="text158"><tspan
   style="font-style:italic"
   id="tspan3179">merge</tspan>()</text>
      <circle
         fill="none"
         r="5.72"
         clip-path="url(#clipPath2)"
         cx="500.89"
         cy="376.4263"
         id="circle160"
         d="m 506.61001,376.4263 c 0,3.15907 -2.56093,5.72 -5.72,5.72 -3.15906,0 -5.72,-2.56093 -5.72,-5.72 0,-3.15907 2.56094,-5.72 5.72,-5.72 3.15907,0 5.72,2.56093 5.72,5.72 z" />
    </g>
    <g
       fill="white"
       transform="matrix(1,0,0,1,-151,-140)"
       stroke="white"
       id="g162">
      <rect
         x="522.7013"
         width="159.4375"
         height="59.875"
         y="312.2713"
         clip-path="url(#clipPath2)"
         stroke="none"
         id="rect164" />
    </g>
    <g
       font-size="16"
       stroke-linecap="butt"
       transform="matrix(1,0,0,1,-151,-140)"
       fill="rgb(255,127,42)"
       font-family="'DejaVu Sans'"
       stroke="rgb(255,127,42)"
       stroke-miterlimit="1.45"
       id="g166">
      <text
         x="524.7012"
         xml:space="preserve"
         y="329.1228"
         clip-path="url(#clipPath2)"
         stroke="none"
         id="text168">T=[1,1,0]</text>
      <text
         x="524.7012"
         xml:space="preserve"
         y="347.7478"
         clip-path="url(#clipPath2)"
         stroke="none"
         id="text170">A={(a,1,2),(a,1,1)}</text>
      <text
         x="524.7012"
         xml:space="preserve"
         y="366.3728"
         clip-path="url(#clipPath2)"
         stroke="none"
         id="text172">R={}</text>
    </g>
    <g
       fill="rgb(255,127,42)"
       transform="matrix(1,0,0,1,-151,-140)"
       stroke="rgb(255,127,42)"
       id="g174">
      <circle
         r="5.72"
         clip-path="url(#clipPath2)"
         cx="713.06"
         cy="376.4263"
         stroke="none"
         id="circle176"
         d="m 718.78,376.4263 c 0,3.15907 -2.56093,5.72 -5.72,5.72 -3.15907,0 -5.72,-2.56093 -5.72,-5.72 0,-3.15907 2.56093,-5.72 5.72,-5.72 3.15907,0 5.72,2.56093 5.72,5.72 z" />
    </g>
    <g
       font-size="16"
       stroke-linecap="butt"
       transform="matrix(1,0,0,1,-151,-140)"
       fill="rgb(255,127,42)"
       font-family="'DejaVu Sans'"
       stroke="rgb(255,127,42)"
       stroke-miterlimit="1.45"
       id="g178">
      <text
         x="680.8139"
         xml:space="preserve"
         y="398.9978"
         clip-path="url(#clipPath2)"
         stroke="none"
         id="text180"><tspan
   style="font-style:italic"
   id="tspan3181">merge</tspan>()</text>
      <circle
         fill="none"
         r="5.72"
         clip-path="url(#clipPath2)"
         cx="713.06"
         cy="376.4263"
         id="circle182"
         d="m 718.78,376.4263 c 0,3.15907 -2.56093,5.72 -5.72,5.72 -3.15907,0 -5.72,-2.56093 -5.72,-5.72 0,-3.15907 2.56093,-5.72 5.72,-5.72 3.15907,0 5.72,2.56093 5.72,5.72 z" />
      <text
         x="736.8713"
         xml:space="preserve"
         y="329.1228"
         clip-path="url(#clipPath2)"
         stroke="none"
         id="text184">T=[2,1,0]</text>
      <text
         x="736.8713"
         xml:space="preserve"
         y="347.7478"
         clip-path="url(#clipPath2)"
         stroke="none"
         id="text186">A={(a,1,2),(a,1,1)}</text>
      <text
         x="736.8713"
         xml:space="preserve"
         y="366.3728"
         clip-path="url(#clipPath2)"
         stroke="none"
         id="text188">R={(a,1,1,2,1)}</text>
    </g>
  </g>
</svg>
