<?xml version="1.0" encoding="UTF-8" standalone="no"?>
<svg
   xmlns:dc="http://purl.org/dc/elements/1.1/"
   xmlns:cc="http://creativecommons.org/ns#"
   xmlns:rdf="http://www.w3.org/1999/02/22-rdf-syntax-ns#"
   xmlns:svg="http://www.w3.org/2000/svg"
   xmlns="http://www.w3.org/2000/svg"
   xmlns:sodipodi="http://sodipodi.sourceforge.net/DTD/sodipodi-0.dtd"
   xmlns:inkscape="http://www.inkscape.org/namespaces/inkscape"
   fill-opacity="1"
   color-rendering="auto"
   color-interpolation="auto"
   stroke="black"
   text-rendering="auto"
   stroke-linecap="square"
   width="398"
   stroke-miterlimit="10"
   stroke-opacity="1"
   shape-rendering="auto"
   fill="black"
   stroke-dasharray="none"
   font-weight="normal"
   stroke-width="1"
   height="197"
   font-family="'Dialog'"
   font-style="normal"
   stroke-linejoin="miter"
   font-size="12"
   stroke-dashoffset="0"
   image-rendering="auto"
   id="svg2"
   version="1.1"
   inkscape:version="0.48.2 r9819"
   sodipodi:docname="or-set-op-based.svg">
  <metadata
     id="metadata140">
    <rdf:RDF>
      <cc:Work
         rdf:about="">
        <dc:format>image/svg+xml</dc:format>
        <dc:type
           rdf:resource="http://purl.org/dc/dcmitype/StillImage" />
      </cc:Work>
    </rdf:RDF>
  </metadata>
  <sodipodi:namedview
     pagecolor="#ffffff"
     bordercolor="#666666"
     borderopacity="1"
     objecttolerance="10"
     gridtolerance="10"
     guidetolerance="10"
     inkscape:pageopacity="0"
     inkscape:pageshadow="2"
     inkscape:window-width="1280"
     inkscape:window-height="949"
     id="namedview138"
     showgrid="false"
     inkscape:zoom="2.1959397"
     inkscape:cx="223.11179"
     inkscape:cy="119.63234"
     inkscape:window-x="0"
     inkscape:window-y="24"
     inkscape:window-maximized="1"
     inkscape:current-layer="g5" />
  <!--Generated by ySVG-->
  <defs
     id="genericDefs" />
  <g
     id="g5">
    <defs
       id="defs1">
      <clipPath
         clipPathUnits="userSpaceOnUse"
         id="clipPath1">
        <path
           d="M0 0 L398 0 L398 197 L0 197 L0 0 Z"
           id="path9" />
      </clipPath>
      <clipPath
         clipPathUnits="userSpaceOnUse"
         id="clipPath2">
        <path
           d="M215 163 L613 163 L613 360 L215 360 L215 163 Z"
           id="path12" />
      </clipPath>
    </defs>
    <g
       fill="white"
       transform="translate(-215,-163)"
       stroke="white"
       id="g14">
      <rect
         x="215"
         width="398"
         height="197"
         y="163"
         clip-path="url(#clipPath2)"
         stroke="none"
         id="rect16" />
    </g>
    <g
       font-size="16"
       stroke-linecap="butt"
       transform="matrix(1,0,0,1,-215,-163)"
       fill="rgb(89,129,170)"
       font-family="'DejaVu Sans'"
       stroke="rgb(89,129,170)"
       stroke-miterlimit="1.45"
       id="g18">
      <text
         x="570.31799"
         xml:space="preserve"
         y="206.9391"
         clip-path="url(#clipPath2)"
         id="text20"
         style="stroke:none">{<tspan
   style="fill:#488748"
   id="tspan3183">a</tspan><tspan
   style="font-size:65%;baseline-shift:sub;fill:#488748"
   id="tspan3127">β</tspan>}</text>
    </g>
    <g
       fill="rgb(89,129,170)"
       transform="matrix(1,0,0,1,-215,-163)"
       stroke="rgb(89,129,170)"
       id="g22">
      <circle
         r="5.72"
         clip-path="url(#clipPath2)"
         cx="305.24"
         cy="201.4"
         stroke="none"
         id="circle24"
         d="m 310.95999,201.39999 c 0,3.15907 -2.56093,5.72 -5.72,5.72 -3.15907,0 -5.72,-2.56093 -5.72,-5.72 0,-3.15906 2.56093,-5.72 5.72,-5.72 3.15907,0 5.72,2.56094 5.72,5.72 z" />
    </g>
    <g
       font-size="16"
       stroke-linecap="butt"
       transform="matrix(1,0,0,1,-215,-163)"
       fill="rgb(89,129,170)"
       font-family="'DejaVu Sans'"
       stroke="rgb(89,129,170)"
       stroke-miterlimit="1.45"
       id="g26">
      <text
         x="279.0369"
         xml:space="preserve"
         y="189.9066"
         clip-path="url(#clipPath2)"
         id="text28"
         style="stroke:none"><tspan
   style="font-style:italic"
   id="tspan3117">add</tspan>(a<tspan
   style="font-size:65%;baseline-shift:sub"
   id="tspan3119">α</tspan>)</text>
      <circle
         fill="none"
         r="5.72"
         clip-path="url(#clipPath2)"
         cx="305.24"
         cy="201.4"
         id="circle30"
         d="m 310.95999,201.39999 c 0,3.15907 -2.56093,5.72 -5.72,5.72 -3.15907,0 -5.72,-2.56093 -5.72,-5.72 0,-3.15906 2.56093,-5.72 5.72,-5.72 3.15907,0 5.72,2.56094 5.72,5.72 z" />
    </g>
    <g
       fill="rgb(89,129,170)"
       transform="matrix(1,0,0,1,-215,-163)"
       stroke="rgb(89,129,170)"
       id="g32">
      <circle
         r="5.72"
         clip-path="url(#clipPath2)"
         cx="527.08"
         cy="201.4"
         stroke="none"
         id="circle34"
         d="m 532.80002,201.39999 c 0,3.15907 -2.56093,5.72 -5.72,5.72 -3.15907,0 -5.72,-2.56093 -5.72,-5.72 0,-3.15906 2.56093,-5.72 5.72,-5.72 3.15907,0 5.72,2.56094 5.72,5.72 z" />
    </g>
    <g
       font-size="16"
       stroke-linecap="butt"
       transform="matrix(1,0,0,1,-215,-163)"
       fill="rgb(89,129,170)"
       font-family="'DejaVu Sans'"
       stroke="rgb(89,129,170)"
       stroke-miterlimit="1.45"
       id="g36">
      <text
         x="500.87689"
         xml:space="preserve"
         y="189.9066"
         clip-path="url(#clipPath2)"
         id="text38"
         style="stroke:none"><tspan
   style="font-style:italic"
   id="tspan3133">add</tspan>(<tspan
   style="fill:#488748"
   id="tspan3187">a</tspan><tspan
   style="font-size:65%;baseline-shift:sub;fill:#488748"
   id="tspan3125">β</tspan>)</text>
      <circle
         fill="none"
         r="5.72"
         clip-path="url(#clipPath2)"
         cx="527.08"
         cy="201.4"
         id="circle40"
         d="m 532.80002,201.39999 c 0,3.15907 -2.56093,5.72 -5.72,5.72 -3.15907,0 -5.72,-2.56093 -5.72,-5.72 0,-3.15906 2.56093,-5.72 5.72,-5.72 3.15907,0 5.72,2.56094 5.72,5.72 z" />
    </g>
    <g
       fill="rgb(72,135,72)"
       transform="matrix(1,0,0,1,-215,-163)"
       stroke="rgb(72,135,72)"
       id="g42">
      <circle
         r="5.72"
         clip-path="url(#clipPath2)"
         cx="277.46"
         cy="261.4"
         stroke="none"
         id="circle44"
         d="m 283.17999,261.39999 c 0,3.15907 -2.56093,5.72 -5.72,5.72 -3.15907,0 -5.72,-2.56093 -5.72,-5.72 0,-3.15906 2.56093,-5.72 5.72,-5.72 3.15907,0 5.72,2.56094 5.72,5.72 z" />
    </g>
    <g
       font-size="16"
       stroke-linecap="butt"
       transform="matrix(1,0,0,1,-215,-163)"
       fill="rgb(72,135,72)"
       font-family="'DejaVu Sans'"
       stroke="rgb(72,135,72)"
       stroke-miterlimit="1.45"
       id="g46">
      <text
         x="251.2569"
         xml:space="preserve"
         y="249.9066"
         clip-path="url(#clipPath2)"
         id="text48"
         style="stroke:none"><tspan
   style="font-style:italic"
   id="tspan3131">add</tspan>(a<tspan
   style="font-size:65%;baseline-shift:sub"
   id="tspan3129">β</tspan>)</text>
      <circle
         fill="none"
         r="5.72"
         clip-path="url(#clipPath2)"
         cx="277.46"
         cy="261.4"
         id="circle50"
         d="m 283.17999,261.39999 c 0,3.15907 -2.56093,5.72 -5.72,5.72 -3.15907,0 -5.72,-2.56093 -5.72,-5.72 0,-3.15906 2.56093,-5.72 5.72,-5.72 3.15907,0 5.72,2.56094 5.72,5.72 z" />
      <text
         x="570.31799"
         xml:space="preserve"
         y="326.93909"
         clip-path="url(#clipPath2)"
         id="text52"
         style="fill:#ff7f2a;stroke:none">{<tspan
   style="fill:#488748"
   id="tspan3179">a</tspan><tspan
   style="font-size:65%;baseline-shift:sub;fill:#488748"
   id="tspan3153">β</tspan>}</text>
    </g>
    <g
       fill="rgb(255,127,42)"
       transform="matrix(1,0,0,1,-215,-163)"
       stroke="rgb(255,127,42)"
       id="g54">
      <circle
         r="5.72"
         clip-path="url(#clipPath2)"
         cx="432.36"
         cy="321.4"
         stroke="none"
         id="circle56"
         d="m 438.07999,321.39999 c 0,3.15907 -2.56094,5.72 -5.72,5.72 -3.15907,0 -5.72,-2.56093 -5.72,-5.72 0,-3.15906 2.56093,-5.72 5.72,-5.72 3.15906,0 5.72,2.56094 5.72,5.72 z" />
    </g>
    <g
       font-size="16"
       stroke-linecap="butt"
       transform="matrix(1,0,0,1,-215,-163)"
       fill="rgb(255,127,42)"
       font-family="'DejaVu Sans'"
       stroke="rgb(255,127,42)"
       stroke-miterlimit="1.45"
       id="g58">
      <text
         x="406.15689"
         xml:space="preserve"
         y="343.97159"
         clip-path="url(#clipPath2)"
         id="text60"
         style="stroke:none"><tspan
   style="font-style:italic"
   id="tspan3147">add</tspan>(<tspan
   style="fill:#5981aa"
   id="tspan3159">a</tspan><tspan
   style="font-size:65%;baseline-shift:sub;fill:#5981aa"
   id="tspan3141">α</tspan>)</text>
      <circle
         fill="none"
         r="5.72"
         clip-path="url(#clipPath2)"
         cx="432.36"
         cy="321.4"
         id="circle62"
         d="m 438.07999,321.39999 c 0,3.15907 -2.56094,5.72 -5.72,5.72 -3.15907,0 -5.72,-2.56093 -5.72,-5.72 0,-3.15906 2.56093,-5.72 5.72,-5.72 3.15906,0 5.72,2.56094 5.72,5.72 z" />
      <text
         x="230.2203"
         xml:space="preserve"
         y="326.9391"
         clip-path="url(#clipPath2)"
         stroke="none"
         id="text64">{}</text>
      <text
         fill="rgb(72,135,72)"
         x="230.2203"
         xml:space="preserve"
         y="266.9391"
         clip-path="url(#clipPath2)"
         stroke="none"
         id="text66">{}</text>
      <text
         fill="rgb(89,129,170)"
         x="230.2203"
         xml:space="preserve"
         y="206.9391"
         clip-path="url(#clipPath2)"
         stroke="none"
         id="text68">{}</text>
    </g>
    <g
       fill="rgb(255,127,42)"
       transform="matrix(1,0,0,1,-215,-163)"
       stroke="rgb(255,127,42)"
       id="g70">
      <circle
         r="5.72"
         clip-path="url(#clipPath2)"
         cx="332.06"
         cy="321.4"
         stroke="none"
         id="circle72"
         d="m 337.78,321.39999 c 0,3.15907 -2.56093,5.72 -5.72,5.72 -3.15907,0 -5.72,-2.56093 -5.72,-5.72 0,-3.15906 2.56093,-5.72 5.72,-5.72 3.15907,0 5.72,2.56094 5.72,5.72 z" />
    </g>
    <g
       font-size="16"
       stroke-linecap="butt"
       transform="matrix(1,0,0,1,-215,-163)"
       fill="rgb(255,127,42)"
       font-family="'DejaVu Sans'"
       stroke="rgb(255,127,42)"
       stroke-miterlimit="1.45"
       id="g74">
      <text
         x="305.8569"
         xml:space="preserve"
         y="343.97159"
         clip-path="url(#clipPath2)"
         id="text76"
         style="stroke:none"><tspan
   style="font-style:italic"
   id="tspan3135">add</tspan>(<tspan
   style="fill:#488748"
   id="tspan3167">a</tspan><tspan
   style="font-size:65%;baseline-shift:sub;fill:#488748"
   id="tspan3137">β</tspan>)</text>
      <circle
         fill="none"
         r="5.72"
         clip-path="url(#clipPath2)"
         cx="332.06"
         cy="321.4"
         id="circle78"
         d="m 337.78,321.39999 c 0,3.15907 -2.56093,5.72 -5.72,5.72 -3.15907,0 -5.72,-2.56093 -5.72,-5.72 0,-3.15906 2.56093,-5.72 5.72,-5.72 3.15907,0 5.72,2.56094 5.72,5.72 z" />
    </g>
    <g
       fill="rgb(89,129,170)"
       transform="matrix(1,0,0,1,-215,-163)"
       stroke="rgb(89,129,170)"
       id="g80">
      <circle
         r="5.72"
         clip-path="url(#clipPath2)"
         cx="418.04"
         cy="201.4"
         stroke="none"
         id="circle82"
         d="m 423.76001,201.39999 c 0,3.15907 -2.56093,5.72 -5.72,5.72 -3.15907,0 -5.72,-2.56093 -5.72,-5.72 0,-3.15906 2.56093,-5.72 5.72,-5.72 3.15907,0 5.72,2.56094 5.72,5.72 z" />
    </g>
    <g
       font-size="16"
       stroke-linecap="butt"
       transform="matrix(1,0,0,1,-215,-163)"
       fill="rgb(89,129,170)"
       font-family="'DejaVu Sans'"
       stroke="rgb(89,129,170)"
       stroke-miterlimit="1.45"
       id="g84">
      <text
         x="391.0791"
         xml:space="preserve"
         y="189.9066"
         clip-path="url(#clipPath2)"
         stroke="none"
         id="text86"><tspan
   style="font-style:italic"
   id="tspan3123">rmv</tspan>(a)</text>
      <circle
         fill="none"
         r="5.72"
         clip-path="url(#clipPath2)"
         cx="418.04"
         cy="201.4"
         id="circle88"
         d="m 423.76001,201.39999 c 0,3.15907 -2.56093,5.72 -5.72,5.72 -3.15907,0 -5.72,-2.56093 -5.72,-5.72 0,-3.15906 2.56093,-5.72 5.72,-5.72 3.15907,0 5.72,2.56094 5.72,5.72 z" />
    </g>
    <g
       fill="rgb(255,127,42)"
       transform="matrix(1,0,0,1,-215,-163)"
       stroke="rgb(255,127,42)"
       id="g90">
      <circle
         r="5.72"
         clip-path="url(#clipPath2)"
         cx="527.08"
         cy="321.4"
         stroke="none"
         id="circle92"
         d="m 532.80002,321.39999 c 0,3.15907 -2.56093,5.72 -5.72,5.72 -3.15907,0 -5.72,-2.56093 -5.72,-5.72 0,-3.15906 2.56093,-5.72 5.72,-5.72 3.15907,0 5.72,2.56094 5.72,5.72 z" />
    </g>
    <g
       font-size="16"
       stroke-linecap="butt"
       transform="matrix(1,0,0,1,-215,-163)"
       fill="rgb(255,127,42)"
       font-family="'DejaVu Sans'"
       stroke="rgb(255,127,42)"
       stroke-miterlimit="1.45"
       id="g94">
      <text
         x="500.11899"
         xml:space="preserve"
         y="343.97159"
         clip-path="url(#clipPath2)"
         id="text96"
         style="stroke:none"><tspan
   style="font-style:italic"
   id="tspan3149">rmv</tspan>(<tspan
   style="fill:#5981aa"
   id="tspan3163">a</tspan><tspan
   style="font-size:65%;baseline-shift:sub;fill:#5981aa"
   id="tspan3151">α</tspan>)</text>
      <circle
         fill="none"
         r="5.72"
         clip-path="url(#clipPath2)"
         cx="527.08"
         cy="321.4"
         id="circle98"
         d="m 532.80002,321.39999 c 0,3.15907 -2.56093,5.72 -5.72,5.72 -3.15907,0 -5.72,-2.56093 -5.72,-5.72 0,-3.15906 2.56093,-5.72 5.72,-5.72 3.15907,0 5.72,2.56094 5.72,5.72 z" />
      <text
         x="346.55801"
         xml:space="preserve"
         y="196.3466"
         clip-path="url(#clipPath2)"
         id="text100"
         style="fill:#5981aa;stroke:none">{a<tspan
   style="font-size:65%;baseline-shift:sub"
   id="tspan3121">α</tspan>}</text>
      <text
         fill="rgb(89,129,170)"
         x="456.9883"
         xml:space="preserve"
         y="196.3466"
         clip-path="url(#clipPath2)"
         stroke="none"
         id="text102">{}</text>
      <text
         x="367.12799"
         xml:space="preserve"
         y="337.53159"
         clip-path="url(#clipPath2)"
         id="text104"
         style="stroke:none">{<tspan
   style="fill:#488748"
   id="tspan3171">a</tspan><tspan
   style="font-size:65%;baseline-shift:sub;fill:#488748"
   id="tspan3139">β</tspan>}</text>
      <text
         x="454.64969"
         xml:space="preserve"
         y="316.34659"
         clip-path="url(#clipPath2)"
         id="text106"
         style="stroke:none"
         transform="translate(-10,0)">{<tspan
   style="fill:#488748"
   id="tspan3175">a</tspan><tspan
   style="font-size:65.00091553000000033%;baseline-shift:sub;fill:#488748"
   id="tspan3143">β</tspan>, <tspan
   style="fill:#5981aa"
   id="tspan3155">a</tspan><tspan
   style="font-size:65.00091553000000033%;baseline-shift:sub;fill:#5981aa"
   id="tspan3145">α</tspan>}</text>
    </g>
    <g
       stroke-linecap="butt"
       transform="matrix(1,0,0,1,-215,-163)"
       stroke-miterlimit="1.45"
       id="g108">
      <path
         fill="none"
         d="M283.0216 260.0632 L513.7399 204.6065"
         clip-path="url(#clipPath2)"
         id="path110" />
      <path
         d="M521.5184 202.7368 L508.6822 200.6798 L512.7676 204.8402 L511.0192 210.4029 Z"
         clip-path="url(#clipPath2)"
         stroke="none"
         id="path112" />
      <path
         fill="none"
         d="M309.3994 205.3265 L422.3831 311.9819"
         clip-path="url(#clipPath2)"
         id="path114" />
      <path
         d="M428.2005 317.4735 L422.9066 305.6002 L421.6559 311.2955 L416.0421 312.872 Z"
         clip-path="url(#clipPath2)"
         stroke="none"
         id="path116" />
      <path
         fill="none"
         stroke-width="2"
         d="M255.4 321.4 L312.488 321.4 L312.488 321.4 L561.4 321.4"
         clip-path="url(#clipPath2)"
         stroke="rgb(255,127,42)"
         id="path118" />
      <path
         fill="rgb(255,127,42)"
         stroke-width="2"
         d="M570.4 321.4 L556.9 315.775 L560.275 321.4 L556.9 327.025 Z"
         clip-path="url(#clipPath2)"
         stroke="none"
         id="path120" />
      <path
         fill="none"
         stroke-width="2"
         d="M255.4 261.4 L561.4 261.4"
         clip-path="url(#clipPath2)"
         stroke="rgb(72,135,72)"
         id="path122" />
      <path
         fill="rgb(72,135,72)"
         stroke-width="2"
         d="M570.4 261.4 L556.9 255.775 L560.275 261.4 L556.9 267.025 Z"
         clip-path="url(#clipPath2)"
         stroke="none"
         id="path124" />
      <path
         fill="none"
         stroke-width="2"
         d="M255.4 201.4 L561.4 201.4"
         clip-path="url(#clipPath2)"
         stroke="rgb(89,129,170)"
         id="path126" />
      <path
         fill="rgb(89,129,170)"
         stroke-width="2"
         d="M570.4 201.4 L556.9 195.775 L560.275 201.4 L556.9 207.025 Z"
         clip-path="url(#clipPath2)"
         stroke="none"
         id="path128" />
      <path
         fill="none"
         d="M281.3098 265.6306 L322.8259 311.2526"
         clip-path="url(#clipPath2)"
         id="path130" />
      <path
         d="M328.2102 317.1695 L323.8318 304.929 L322.1528 310.513 L316.4357 311.6594 Z"
         clip-path="url(#clipPath2)"
         stroke="none"
         id="path132" />
      <path
         fill="none"
         d="M421.8867 205.6333 L517.8533 311.2459"
         clip-path="url(#clipPath2)"
         id="path134" />
      <path
         d="M523.2333 317.1667 L518.8638 304.923 L517.1808 310.5058 L511.4628 311.648 Z"
         clip-path="url(#clipPath2)"
         stroke="none"
         id="path136" />
    </g>
  </g>
</svg>
