<?xml version="1.0" encoding="UTF-8" standalone="no"?>
<svg
   xmlns:dc="http://purl.org/dc/elements/1.1/"
   xmlns:cc="http://creativecommons.org/ns#"
   xmlns:rdf="http://www.w3.org/1999/02/22-rdf-syntax-ns#"
   xmlns:svg="http://www.w3.org/2000/svg"
   xmlns="http://www.w3.org/2000/svg"
   xmlns:sodipodi="http://sodipodi.sourceforge.net/DTD/sodipodi-0.dtd"
   xmlns:inkscape="http://www.inkscape.org/namespaces/inkscape"
   fill-opacity="1"
   color-rendering="auto"
   color-interpolation="auto"
   stroke="black"
   text-rendering="auto"
   stroke-linecap="square"
   width="378"
   stroke-miterlimit="10"
   stroke-opacity="1"
   shape-rendering="auto"
   fill="black"
   stroke-dasharray="none"
   font-weight="normal"
   stroke-width="1"
   height="177"
   font-family="'Dialog'"
   font-style="normal"
   stroke-linejoin="miter"
   font-size="12"
   stroke-dashoffset="0"
   image-rendering="auto"
   id="svg2"
   version="1.1"
   inkscape:version="0.48.2 r9819"
   sodipodi:docname="set-counter-ex.svg">
  <metadata
     id="metadata132">
    <rdf:RDF>
      <cc:Work
         rdf:about="">
        <dc:format>image/svg+xml</dc:format>
        <dc:type
           rdf:resource="http://purl.org/dc/dcmitype/StillImage" />
      </cc:Work>
    </rdf:RDF>
  </metadata>
  <sodipodi:namedview
     pagecolor="#ffffff"
     bordercolor="#666666"
     borderopacity="1"
     objecttolerance="10"
     gridtolerance="10"
     guidetolerance="10"
     inkscape:pageopacity="0"
     inkscape:pageshadow="2"
     inkscape:window-width="1280"
     inkscape:window-height="949"
     id="namedview130"
     showgrid="false"
     inkscape:zoom="1.6349206"
     inkscape:cx="145.82226"
     inkscape:cy="72.222349"
     inkscape:window-x="0"
     inkscape:window-y="24"
     inkscape:window-maximized="1"
     inkscape:current-layer="g5" />
  <!--Generated by ySVG-->
  <defs
     id="genericDefs" />
  <g
     id="g5">
    <defs
       id="defs1">
      <clipPath
         clipPathUnits="userSpaceOnUse"
         id="clipPath1">
        <path
           d="M0 0 L378 0 L378 177 L0 177 L0 0 Z"
           id="path9" />
      </clipPath>
      <clipPath
         clipPathUnits="userSpaceOnUse"
         id="clipPath2">
        <path
           d="M225 173 L603 173 L603 350 L225 350 L225 173 Z"
           id="path12" />
      </clipPath>
    </defs>
    <g
       fill="white"
       transform="translate(-225,-173)"
       stroke="white"
       id="g14">
      <rect
         x="225"
         width="378"
         height="177"
         y="173"
         clip-path="url(#clipPath2)"
         stroke="none"
         id="rect16" />
    </g>
    <g
       font-size="16"
       stroke-linecap="butt"
       transform="matrix(1,0,0,1,-225,-173)"
       fill="rgb(89,129,170)"
       font-family="'DejaVu Sans'"
       stroke="rgb(89,129,170)"
       stroke-miterlimit="1.45"
       id="g18">
      <text
         x="570.318"
         xml:space="preserve"
         y="206.9391"
         clip-path="url(#clipPath2)"
         stroke="none"
         id="text20">{a}</text>
    </g>
    <g
       fill="rgb(89,129,170)"
       transform="matrix(1,0,0,1,-225,-173)"
       stroke="rgb(89,129,170)"
       id="g22">
      <circle
         r="5.72"
         clip-path="url(#clipPath2)"
         cx="305.24"
         cy="201.4"
         stroke="none"
         id="circle24"
         d="m 310.95999,201.39999 c 0,3.15907 -2.56093,5.72 -5.72,5.72 -3.15907,0 -5.72,-2.56093 -5.72,-5.72 0,-3.15906 2.56093,-5.72 5.72,-5.72 3.15907,0 5.72,2.56094 5.72,5.72 z" />
    </g>
    <g
       font-size="16"
       stroke-linecap="butt"
       transform="matrix(1,0,0,1,-225,-173)"
       fill="rgb(89,129,170)"
       font-family="'DejaVu Sans'"
       stroke="rgb(89,129,170)"
       stroke-miterlimit="1.45"
       id="g26">
      <text
         x="279.0369"
         xml:space="preserve"
         y="189.9066"
         clip-path="url(#clipPath2)"
         stroke="none"
         id="text28"><tspan
   style="font-style:italic"
   id="tspan3109">add</tspan>(a)</text>
      <circle
         fill="none"
         r="5.72"
         clip-path="url(#clipPath2)"
         cx="305.24"
         cy="201.4"
         id="circle30"
         d="m 310.95999,201.39999 c 0,3.15907 -2.56093,5.72 -5.72,5.72 -3.15907,0 -5.72,-2.56093 -5.72,-5.72 0,-3.15906 2.56093,-5.72 5.72,-5.72 3.15907,0 5.72,2.56094 5.72,5.72 z" />
    </g>
    <g
       fill="rgb(89,129,170)"
       transform="matrix(1,0,0,1,-225,-173)"
       stroke="rgb(89,129,170)"
       id="g32">
      <circle
         r="5.72"
         clip-path="url(#clipPath2)"
         cx="527.08"
         cy="201.4"
         stroke="none"
         id="circle34"
         d="m 532.80002,201.39999 c 0,3.15907 -2.56093,5.72 -5.72,5.72 -3.15907,0 -5.72,-2.56093 -5.72,-5.72 0,-3.15906 2.56093,-5.72 5.72,-5.72 3.15907,0 5.72,2.56094 5.72,5.72 z" />
    </g>
    <g
       font-size="16"
       stroke-linecap="butt"
       transform="matrix(1,0,0,1,-225,-173)"
       fill="rgb(89,129,170)"
       font-family="'DejaVu Sans'"
       stroke="rgb(89,129,170)"
       stroke-miterlimit="1.45"
       id="g36">
      <text
         x="500.8769"
         xml:space="preserve"
         y="189.9066"
         clip-path="url(#clipPath2)"
         stroke="none"
         id="text38"><tspan
   style="font-style:italic"
   id="tspan3113">add</tspan>(a)</text>
      <circle
         fill="none"
         r="5.72"
         clip-path="url(#clipPath2)"
         cx="527.08"
         cy="201.4"
         id="circle40"
         d="m 532.80002,201.39999 c 0,3.15907 -2.56093,5.72 -5.72,5.72 -3.15907,0 -5.72,-2.56093 -5.72,-5.72 0,-3.15906 2.56093,-5.72 5.72,-5.72 3.15907,0 5.72,2.56094 5.72,5.72 z" />
    </g>
    <g
       fill="rgb(72,135,72)"
       transform="matrix(1,0,0,1,-225,-173)"
       stroke="rgb(72,135,72)"
       id="g42">
      <circle
         r="5.72"
         clip-path="url(#clipPath2)"
         cx="305.24"
         cy="261.4"
         stroke="none"
         id="circle44"
         d="m 310.95999,261.39999 c 0,3.15907 -2.56093,5.72 -5.72,5.72 -3.15907,0 -5.72,-2.56093 -5.72,-5.72 0,-3.15906 2.56093,-5.72 5.72,-5.72 3.15907,0 5.72,2.56094 5.72,5.72 z" />
    </g>
    <g
       font-size="16"
       stroke-linecap="butt"
       transform="matrix(1,0,0,1,-225,-173)"
       fill="rgb(72,135,72)"
       font-family="'DejaVu Sans'"
       stroke="rgb(72,135,72)"
       stroke-miterlimit="1.45"
       id="g46">
      <text
         x="279.0369"
         xml:space="preserve"
         y="249.9066"
         clip-path="url(#clipPath2)"
         stroke="none"
         id="text48"><tspan
   style="font-style:italic"
   id="tspan3115">add</tspan>(a)</text>
      <circle
         fill="none"
         r="5.72"
         clip-path="url(#clipPath2)"
         cx="305.24"
         cy="261.4"
         id="circle50"
         d="m 310.95999,261.39999 c 0,3.15907 -2.56093,5.72 -5.72,5.72 -3.15907,0 -5.72,-2.56093 -5.72,-5.72 0,-3.15906 2.56093,-5.72 5.72,-5.72 3.15907,0 5.72,2.56094 5.72,5.72 z" />
      <text
         fill="rgb(255,127,42)"
         x="575.2203"
         xml:space="preserve"
         y="326.9391"
         clip-path="url(#clipPath2)"
         stroke="none"
         id="text52">{}</text>
    </g>
    <g
       fill="rgb(255,127,42)"
       transform="matrix(1,0,0,1,-225,-173)"
       stroke="rgb(255,127,42)"
       id="g54">
      <circle
         r="5.72"
         clip-path="url(#clipPath2)"
         cx="452.328"
         cy="321.4"
         stroke="none"
         id="circle56"
         d="m 458.048,321.39999 c 0,3.15907 -2.56093,5.72 -5.72,5.72 -3.15907,0 -5.72,-2.56093 -5.72,-5.72 0,-3.15906 2.56093,-5.72 5.72,-5.72 3.15907,0 5.72,2.56094 5.72,5.72 z" />
    </g>
    <g
       font-size="16"
       stroke-linecap="butt"
       transform="matrix(1,0,0,1,-225,-173)"
       fill="rgb(255,127,42)"
       font-family="'DejaVu Sans'"
       stroke="rgb(255,127,42)"
       stroke-miterlimit="1.45"
       id="g58">
      <text
         x="426.1249"
         xml:space="preserve"
         y="343.9716"
         clip-path="url(#clipPath2)"
         stroke="none"
         id="text60"><tspan
   style="font-style:italic"
   id="tspan3119">add</tspan>(a)</text>
      <circle
         fill="none"
         r="5.72"
         clip-path="url(#clipPath2)"
         cx="452.328"
         cy="321.4"
         id="circle62"
         d="m 458.048,321.39999 c 0,3.15907 -2.56093,5.72 -5.72,5.72 -3.15907,0 -5.72,-2.56093 -5.72,-5.72 0,-3.15906 2.56093,-5.72 5.72,-5.72 3.15907,0 5.72,2.56094 5.72,5.72 z" />
      <text
         x="230.2203"
         xml:space="preserve"
         y="326.9391"
         clip-path="url(#clipPath2)"
         stroke="none"
         id="text64">{}</text>
      <text
         fill="rgb(72,135,72)"
         x="230.2203"
         xml:space="preserve"
         y="266.9391"
         clip-path="url(#clipPath2)"
         stroke="none"
         id="text66">{}</text>
      <text
         fill="rgb(89,129,170)"
         x="230.2203"
         xml:space="preserve"
         y="206.9391"
         clip-path="url(#clipPath2)"
         stroke="none"
         id="text68">{}</text>
    </g>
    <g
       fill="rgb(255,127,42)"
       transform="matrix(1,0,0,1,-225,-173)"
       stroke="rgb(255,127,42)"
       id="g70">
      <circle
         r="5.72"
         clip-path="url(#clipPath2)"
         cx="379.164"
         cy="321.4"
         stroke="none"
         id="circle72"
         d="m 384.884,321.39999 c 0,3.15907 -2.56093,5.72 -5.72,5.72 -3.15907,0 -5.72,-2.56093 -5.72,-5.72 0,-3.15906 2.56093,-5.72 5.72,-5.72 3.15907,0 5.72,2.56094 5.72,5.72 z" />
    </g>
    <g
       font-size="16"
       stroke-linecap="butt"
       transform="matrix(1,0,0,1,-225,-173)"
       fill="rgb(255,127,42)"
       font-family="'DejaVu Sans'"
       stroke="rgb(255,127,42)"
       stroke-miterlimit="1.45"
       id="g74">
      <text
         x="352.9609"
         xml:space="preserve"
         y="343.9716"
         clip-path="url(#clipPath2)"
         stroke="none"
         id="text76"><tspan
   style="font-style:italic"
   id="tspan3117">add</tspan>(a)</text>
      <circle
         fill="none"
         r="5.72"
         clip-path="url(#clipPath2)"
         cx="379.164"
         cy="321.4"
         id="circle78"
         d="m 384.884,321.39999 c 0,3.15907 -2.56093,5.72 -5.72,5.72 -3.15907,0 -5.72,-2.56093 -5.72,-5.72 0,-3.15906 2.56093,-5.72 5.72,-5.72 3.15907,0 5.72,2.56094 5.72,5.72 z" />
    </g>
    <g
       fill="rgb(89,129,170)"
       transform="matrix(1,0,0,1,-225,-173)"
       stroke="rgb(89,129,170)"
       id="g80">
      <circle
         r="5.72"
         clip-path="url(#clipPath2)"
         cx="395.64"
         cy="201.4"
         stroke="none"
         id="circle82"
         d="m 401.36001,201.39999 c 0,3.15907 -2.56093,5.72 -5.72,5.72 -3.15906,0 -5.72,-2.56093 -5.72,-5.72 0,-3.15906 2.56094,-5.72 5.72,-5.72 3.15907,0 5.72,2.56094 5.72,5.72 z" />
    </g>
    <g
       font-size="16"
       stroke-linecap="butt"
       transform="matrix(1,0,0,1,-225,-173)"
       fill="rgb(89,129,170)"
       font-family="'DejaVu Sans'"
       stroke="rgb(89,129,170)"
       stroke-miterlimit="1.45"
       id="g84">
      <text
         x="368.6791"
         xml:space="preserve"
         y="189.9066"
         clip-path="url(#clipPath2)"
         stroke="none"
         id="text86"><tspan
   style="font-style:italic"
   id="tspan3111">rmv</tspan>(a)</text>
      <circle
         fill="none"
         r="5.72"
         clip-path="url(#clipPath2)"
         cx="395.64"
         cy="201.4"
         id="circle88"
         d="m 401.36001,201.39999 c 0,3.15907 -2.56093,5.72 -5.72,5.72 -3.15906,0 -5.72,-2.56093 -5.72,-5.72 0,-3.15906 2.56094,-5.72 5.72,-5.72 3.15907,0 5.72,2.56094 5.72,5.72 z" />
    </g>
    <g
       fill="rgb(255,127,42)"
       transform="matrix(1,0,0,1,-225,-173)"
       stroke="rgb(255,127,42)"
       id="g90">
      <circle
         r="5.72"
         clip-path="url(#clipPath2)"
         cx="517.856"
         cy="321.4"
         stroke="none"
         id="circle92"
         d="m 523.57602,321.39999 c 0,3.15907 -2.56093,5.72 -5.72,5.72 -3.15907,0 -5.72,-2.56093 -5.72,-5.72 0,-3.15906 2.56093,-5.72 5.72,-5.72 3.15907,0 5.72,2.56094 5.72,5.72 z" />
    </g>
    <g
       font-size="16"
       stroke-linecap="butt"
       transform="matrix(1,0,0,1,-225,-173)"
       fill="rgb(255,127,42)"
       font-family="'DejaVu Sans'"
       stroke="rgb(255,127,42)"
       stroke-miterlimit="1.45"
       id="g94">
      <text
         x="490.8951"
         xml:space="preserve"
         y="343.9716"
         clip-path="url(#clipPath2)"
         stroke="none"
         id="text96"><tspan
   style="font-style:italic"
   id="tspan3121">rmv</tspan>(a)</text>
      <circle
         fill="none"
         r="5.72"
         clip-path="url(#clipPath2)"
         cx="517.856"
         cy="321.4"
         id="circle98"
         d="m 523.57602,321.39999 c 0,3.15907 -2.56093,5.72 -5.72,5.72 -3.15907,0 -5.72,-2.56093 -5.72,-5.72 0,-3.15906 2.56093,-5.72 5.72,-5.72 3.15907,0 5.72,2.56094 5.72,5.72 z" />
    </g>
    <g
       stroke-linecap="butt"
       transform="matrix(1,0,0,1,-225,-173)"
       stroke-miterlimit="1.45"
       id="g100">
      <path
         fill="none"
         d="M310.7616 259.9066 L513.8359 204.9821"
         clip-path="url(#clipPath2)"
         id="path102" />
      <path
         d="M521.5584 202.8934 L508.6692 201.1998 L512.8705 205.2432 L511.28 210.853 Z"
         clip-path="url(#clipPath2)"
         stroke="none"
         id="path104" />
      <path
         fill="none"
         d="M309.6721 205.0159 L441.6971 312.7269"
         clip-path="url(#clipPath2)"
         id="path106" />
      <path
         d="M447.8959 317.7841 L441.7585 306.3241 L440.9222 312.0948 L435.437 314.0725 Z"
         clip-path="url(#clipPath2)"
         stroke="none"
         id="path108" />
      <path
         fill="none"
         stroke-width="2"
         d="M255.4 321.4 L359.592 321.4 L359.592 321.4 L561.4 321.4"
         clip-path="url(#clipPath2)"
         stroke="rgb(255,127,42)"
         id="path110" />
      <path
         fill="rgb(255,127,42)"
         stroke-width="2"
         d="M570.4 321.4 L556.9 315.775 L560.275 321.4 L556.9 327.025 Z"
         clip-path="url(#clipPath2)"
         stroke="none"
         id="path112" />
      <path
         fill="none"
         stroke-width="2"
         d="M255.4 261.4 L561.4 261.4"
         clip-path="url(#clipPath2)"
         stroke="rgb(72,135,72)"
         id="path114" />
      <path
         fill="rgb(72,135,72)"
         stroke-width="2"
         d="M570.4 261.4 L556.9 255.775 L560.275 261.4 L556.9 267.025 Z"
         clip-path="url(#clipPath2)"
         stroke="none"
         id="path116" />
      <path
         fill="none"
         stroke-width="2"
         d="M255.4 201.4 L561.4 201.4"
         clip-path="url(#clipPath2)"
         stroke="rgb(89,129,170)"
         id="path118" />
      <path
         fill="rgb(89,129,170)"
         stroke-width="2"
         d="M570.4 201.4 L556.9 195.775 L560.275 201.4 L556.9 207.025 Z"
         clip-path="url(#clipPath2)"
         stroke="none"
         id="path120" />
      <path
         fill="none"
         d="M309.6812 265.0047 L368.5113 312.7538"
         clip-path="url(#clipPath2)"
         id="path122" />
      <path
         d="M374.7228 317.7953 L368.5565 306.3508 L367.7348 312.1236 L362.2545 314.1152 Z"
         clip-path="url(#clipPath2)"
         stroke="none"
         id="path124" />
      <path
         fill="none"
         d="M399.7215 205.4075 L508.0662 311.7877"
         clip-path="url(#clipPath2)"
         id="path126" />
      <path
         d="M513.7745 317.3925 L508.715 305.4175 L507.3526 311.087 L501.709 312.5529 Z"
         clip-path="url(#clipPath2)"
         stroke="none"
         id="path128" />
    </g>
  </g>
</svg>
