<?xml version="1.0" encoding="UTF-8" standalone="no"?>
<svg
   xmlns:dc="http://purl.org/dc/elements/1.1/"
   xmlns:cc="http://creativecommons.org/ns#"
   xmlns:rdf="http://www.w3.org/1999/02/22-rdf-syntax-ns#"
   xmlns:svg="http://www.w3.org/2000/svg"
   xmlns="http://www.w3.org/2000/svg"
   xmlns:sodipodi="http://sodipodi.sourceforge.net/DTD/sodipodi-0.dtd"
   xmlns:inkscape="http://www.inkscape.org/namespaces/inkscape"
   fill-opacity="1"
   color-rendering="auto"
   color-interpolation="auto"
   stroke="black"
   text-rendering="auto"
   stroke-linecap="square"
   width="439"
   stroke-miterlimit="10"
   stroke-opacity="1"
   shape-rendering="auto"
   fill="black"
   stroke-dasharray="none"
   font-weight="normal"
   stroke-width="1"
   height="197"
   font-family="'Dialog'"
   font-style="normal"
   stroke-linejoin="miter"
   font-size="12"
   stroke-dashoffset="0"
   image-rendering="auto"
   id="svg2"
   version="1.1"
   inkscape:version="0.48.2 r9819"
   sodipodi:docname="state-based-repl.svg">
  <metadata
     id="metadata150">
    <rdf:RDF>
      <cc:Work
         rdf:about="">
        <dc:format>image/svg+xml</dc:format>
        <dc:type
           rdf:resource="http://purl.org/dc/dcmitype/StillImage" />
      </cc:Work>
    </rdf:RDF>
  </metadata>
  <sodipodi:namedview
     pagecolor="#ffffff"
     bordercolor="#666666"
     borderopacity="1"
     objecttolerance="10"
     gridtolerance="10"
     guidetolerance="10"
     inkscape:pageopacity="0"
     inkscape:pageshadow="2"
     inkscape:window-width="1280"
     inkscape:window-height="949"
     id="namedview148"
     showgrid="false"
     inkscape:zoom="1.9908519"
     inkscape:cx="329.52465"
     inkscape:cy="149.12828"
     inkscape:window-x="0"
     inkscape:window-y="24"
     inkscape:window-maximized="1"
     inkscape:current-layer="g5" />
  <!--Generated by ySVG-->
  <defs
     id="genericDefs" />
  <g
     id="g5">
    <defs
       id="defs1">
      <clipPath
         clipPathUnits="userSpaceOnUse"
         id="clipPath1">
        <path
           d="M0 0 L439 0 L439 197 L0 197 L0 0 Z"
           id="path9" />
      </clipPath>
      <clipPath
         clipPathUnits="userSpaceOnUse"
         id="clipPath2">
        <path
           d="M136 139 L575 139 L575 336 L136 336 L136 139 Z"
           id="path12" />
      </clipPath>
    </defs>
    <g
       fill="white"
       transform="translate(-136,-139)"
       stroke="white"
       id="g14">
      <rect
         x="136"
         width="439"
         height="197"
         y="139"
         clip-path="url(#clipPath2)"
         stroke="none"
         id="rect16" />
    </g>
    <g
       font-size="16"
       stroke-miterlimit="1.45"
       font-family="sans-serif"
       transform="matrix(1,0,0,1,-136,-139)"
       stroke-linecap="butt"
       id="g18">
      <text
         x="138.4"
         xml:space="preserve"
         y="156.2516"
         clip-path="url(#clipPath2)"
         stroke="none"
         id="text20">s</text>
      <ellipse
         clip-path="url(#clipPath2)"
         fill="none"
         stroke-dasharray="6,2"
         rx="41.4"
         cx="177.8"
         ry="98.2"
         cy="237.6"
         id="ellipse22"
         d="m 219.2,237.60001 c 0,54.23436 -18.53541,98.19999 -41.4,98.19999 -22.86459,0 -41.4,-43.96563 -41.4,-98.19999 0,-54.23436 18.53541,-98.2 41.4,-98.2 22.86459,0 41.4,43.96564 41.4,98.2 z" />
    </g>
    <g
       fill="rgb(89,129,170)"
       transform="matrix(1,0,0,1,-136,-139)"
       stroke="rgb(89,129,170)"
       id="g24">
      <circle
         r="5.72"
         clip-path="url(#clipPath2)"
         cx="279.84"
         cy="176"
         stroke="none"
         id="circle26"
         d="m 285.56,176 c 0,3.15907 -2.56094,5.72 -5.72,5.72 -3.15907,0 -5.72,-2.56093 -5.72,-5.72 0,-3.15907 2.56093,-5.72 5.72,-5.72 3.15906,0 5.72,2.56093 5.72,5.72 z" />
    </g>
    <g
       font-size="16"
       stroke-linecap="butt"
       transform="matrix(1,0,0,1,-136,-139)"
       fill="rgb(89,129,170)"
       font-family="'DejaVu Sans'"
       stroke="rgb(89,129,170)"
       stroke-miterlimit="1.45"
       id="g28">
      <text
         x="251.8244"
         xml:space="preserve"
         y="164.5066"
         clip-path="url(#clipPath2)"
         stroke="none"
         id="text30">s<tspan
   style="font-size:65%;baseline-shift:sub"
   id="tspan3135">1</tspan>.<tspan
   style="font-style:italic"
   id="tspan3133">u</tspan>(a)</text>
      <circle
         fill="none"
         r="5.72"
         clip-path="url(#clipPath2)"
         cx="279.84"
         cy="176"
         id="circle32"
         d="m 285.56,176 c 0,3.15907 -2.56094,5.72 -5.72,5.72 -3.15907,0 -5.72,-2.56093 -5.72,-5.72 0,-3.15907 2.56093,-5.72 5.72,-5.72 3.15906,0 5.72,2.56093 5.72,5.72 z" />
    </g>
    <g
       fill="rgb(89,129,170)"
       transform="matrix(1,0,0,1,-136,-139)"
       stroke="rgb(89,129,170)"
       id="g34">
      <circle
         r="5.72"
         clip-path="url(#clipPath2)"
         cx="360.72"
         cy="176"
         stroke="none"
         id="circle36"
         d="m 366.44,176 c 0,3.15907 -2.56093,5.72 -5.72,5.72 -3.15907,0 -5.72,-2.56093 -5.72,-5.72 0,-3.15907 2.56093,-5.72 5.72,-5.72 3.15907,0 5.72,2.56093 5.72,5.72 z" />
      <circle
         stroke-linecap="butt"
         clip-path="url(#clipPath2)"
         fill="none"
         r="5.72"
         cx="360.72"
         cy="176"
         stroke-miterlimit="1.45"
         id="circle38"
         d="m 366.44,176 c 0,3.15907 -2.56093,5.72 -5.72,5.72 -3.15907,0 -5.72,-2.56093 -5.72,-5.72 0,-3.15907 2.56093,-5.72 5.72,-5.72 3.15907,0 5.72,2.56093 5.72,5.72 z" />
      <circle
         r="5.72"
         clip-path="url(#clipPath2)"
         cx="501.68"
         cy="176"
         stroke="none"
         id="circle40"
         d="m 507.39999,176 c 0,3.15907 -2.56093,5.72 -5.72,5.72 -3.15907,0 -5.72,-2.56093 -5.72,-5.72 0,-3.15907 2.56093,-5.72 5.72,-5.72 3.15907,0 5.72,2.56093 5.72,5.72 z" />
    </g>
    <g
       font-size="16"
       stroke-linecap="butt"
       transform="matrix(1,0,0,1,-136,-139)"
       fill="rgb(89,129,170)"
       font-family="'DejaVu Sans'"
       stroke="rgb(89,129,170)"
       stroke-miterlimit="1.45"
       id="g42">
      <text
         x="466.5862"
         xml:space="preserve"
         y="164.5066"
         clip-path="url(#clipPath2)"
         stroke="none"
         id="text44">s<tspan
   style="font-size:65%;baseline-shift:sub"
   id="tspan3147">1</tspan>.<tspan
   style="font-style:italic"
   id="tspan3149">m</tspan>(s<tspan
   style="font-size:65%;baseline-shift:sub"
   id="tspan3151">2</tspan>)</text>
      <circle
         fill="none"
         r="5.72"
         clip-path="url(#clipPath2)"
         cx="501.68"
         cy="176"
         id="circle46"
         d="m 507.39999,176 c 0,3.15907 -2.56093,5.72 -5.72,5.72 -3.15907,0 -5.72,-2.56093 -5.72,-5.72 0,-3.15907 2.56093,-5.72 5.72,-5.72 3.15907,0 5.72,2.56093 5.72,5.72 z" />
    </g>
    <g
       fill="rgb(72,135,72)"
       transform="matrix(1,0,0,1,-136,-139)"
       stroke="rgb(72,135,72)"
       id="g48">
      <circle
         r="5.72"
         clip-path="url(#clipPath2)"
         cx="279.84"
         cy="236"
         stroke="none"
         id="circle50"
         d="m 285.56,236 c 0,3.15907 -2.56094,5.72 -5.72,5.72 -3.15907,0 -5.72,-2.56093 -5.72,-5.72 0,-3.15907 2.56093,-5.72 5.72,-5.72 3.15906,0 5.72,2.56093 5.72,5.72 z" />
    </g>
    <g
       font-size="16"
       stroke-linecap="butt"
       transform="matrix(1,0,0,1,-136,-139)"
       fill="rgb(72,135,72)"
       font-family="'DejaVu Sans'"
       stroke="rgb(72,135,72)"
       stroke-miterlimit="1.45"
       id="g52">
      <text
         x="251.6486"
         xml:space="preserve"
         y="224.5066"
         clip-path="url(#clipPath2)"
         stroke="none"
         id="text54">s<tspan
   style="font-size:65%;baseline-shift:sub"
   id="tspan3137">2</tspan>.<tspan
   style="font-style:italic"
   id="tspan3139">u</tspan>(b)</text>
      <circle
         fill="none"
         r="5.72"
         clip-path="url(#clipPath2)"
         cx="279.84"
         cy="236"
         id="circle56"
         d="m 285.56,236 c 0,3.15907 -2.56094,5.72 -5.72,5.72 -3.15907,0 -5.72,-2.56093 -5.72,-5.72 0,-3.15907 2.56093,-5.72 5.72,-5.72 3.15906,0 5.72,2.56093 5.72,5.72 z" />
    </g>
    <g
       fill="rgb(72,135,72)"
       transform="matrix(1,0,0,1,-136,-139)"
       stroke="rgb(72,135,72)"
       id="g58">
      <circle
         r="5.72"
         clip-path="url(#clipPath2)"
         cx="390.76"
         cy="236"
         stroke="none"
         id="circle60"
         d="m 396.48001,236 c 0,3.15907 -2.56093,5.72 -5.72,5.72 -3.15907,0 -5.72,-2.56093 -5.72,-5.72 0,-3.15907 2.56093,-5.72 5.72,-5.72 3.15907,0 5.72,2.56093 5.72,5.72 z" />
    </g>
    <g
       font-size="16"
       stroke-linecap="butt"
       transform="matrix(1,0,0,1,-136,-139)"
       fill="rgb(72,135,72)"
       font-family="'DejaVu Sans'"
       stroke="rgb(72,135,72)"
       stroke-miterlimit="1.45"
       id="g62">
      <text
         x="355.6663"
         xml:space="preserve"
         y="258.5716"
         clip-path="url(#clipPath2)"
         stroke="none"
         id="text64">s<tspan
   style="font-size:65%;baseline-shift:sub"
   id="tspan3155">2</tspan>.<tspan
   style="font-style:italic"
   id="tspan3157">m</tspan>(s<tspan
   style="font-size:65%;baseline-shift:sub"
   id="tspan3159">1</tspan>)</text>
      <circle
         fill="none"
         r="5.72"
         clip-path="url(#clipPath2)"
         cx="390.76"
         cy="236"
         id="circle66"
         d="m 396.48001,236 c 0,3.15907 -2.56093,5.72 -5.72,5.72 -3.15907,0 -5.72,-2.56093 -5.72,-5.72 0,-3.15907 2.56093,-5.72 5.72,-5.72 3.15907,0 5.72,2.56093 5.72,5.72 z" />
    </g>
    <g
       fill="rgb(72,135,72)"
       transform="matrix(1,0,0,1,-136,-139)"
       stroke="rgb(72,135,72)"
       id="g68">
      <circle
         r="5.72"
         clip-path="url(#clipPath2)"
         cx="480.176"
         cy="236"
         stroke="none"
         id="circle70"
         d="m 485.89599,236 c 0,3.15907 -2.56093,5.72 -5.72,5.72 -3.15906,0 -5.71999,-2.56093 -5.71999,-5.72 0,-3.15907 2.56093,-5.72 5.71999,-5.72 3.15907,0 5.72,2.56093 5.72,5.72 z" />
      <circle
         stroke-linecap="butt"
         clip-path="url(#clipPath2)"
         fill="none"
         r="5.72"
         cx="480.176"
         cy="236"
         stroke-miterlimit="1.45"
         id="circle72"
         d="m 485.89599,236 c 0,3.15907 -2.56093,5.72 -5.72,5.72 -3.15906,0 -5.71999,-2.56093 -5.71999,-5.72 0,-3.15907 2.56093,-5.72 5.71999,-5.72 3.15907,0 5.72,2.56093 5.72,5.72 z" />
      <circle
         fill="rgb(255,127,42)"
         r="5.72"
         clip-path="url(#clipPath2)"
         cx="470.96"
         cy="296"
         stroke="none"
         id="circle74"
         d="m 476.67999,296 c 0,3.15907 -2.56093,5.72 -5.72,5.72 -3.15907,0 -5.72,-2.56093 -5.72,-5.72 0,-3.15907 2.56093,-5.72 5.72,-5.72 3.15907,0 5.72,2.56093 5.72,5.72 z" />
    </g>
    <g
       font-size="16"
       stroke-linecap="butt"
       transform="matrix(1,0,0,1,-136,-139)"
       fill="rgb(255,127,42)"
       font-family="'DejaVu Sans'"
       stroke="rgb(255,127,42)"
       stroke-miterlimit="1.45"
       id="g76">
      <text
         x="435.8662"
         xml:space="preserve"
         y="318.5716"
         clip-path="url(#clipPath2)"
         stroke="none"
         id="text78">s<tspan
   style="font-size:65%;baseline-shift:sub"
   id="tspan3163">3</tspan>.<tspan
   style="font-style:italic"
   id="tspan3165">m</tspan>(s<tspan
   style="font-size:65%;baseline-shift:sub"
   id="tspan3167">2</tspan>)</text>
      <circle
         fill="none"
         r="5.72"
         clip-path="url(#clipPath2)"
         cx="470.96"
         cy="296"
         id="circle80"
         d="m 476.67999,296 c 0,3.15907 -2.56093,5.72 -5.72,5.72 -3.15907,0 -5.72,-2.56093 -5.72,-5.72 0,-3.15907 2.56093,-5.72 5.72,-5.72 3.15907,0 5.72,2.56093 5.72,5.72 z" />
    </g>
    <g
       fill="rgb(72,135,72)"
       transform="matrix(1,0,0,1,-136,-139)"
       stroke="rgb(72,135,72)"
       id="g82">
      <circle
         r="5.72"
         clip-path="url(#clipPath2)"
         cx="435.468"
         cy="236"
         stroke="none"
         id="circle84"
         d="m 441.18799,236 c 0,3.15907 -2.56093,5.72 -5.72,5.72 -3.15907,0 -5.72,-2.56093 -5.72,-5.72 0,-3.15907 2.56093,-5.72 5.72,-5.72 3.15907,0 5.72,2.56093 5.72,5.72 z" />
      <circle
         stroke-linecap="butt"
         clip-path="url(#clipPath2)"
         fill="none"
         r="5.72"
         cx="435.468"
         cy="236"
         stroke-miterlimit="1.45"
         id="circle86"
         d="m 441.18799,236 c 0,3.15907 -2.56093,5.72 -5.72,5.72 -3.15907,0 -5.72,-2.56093 -5.72,-5.72 0,-3.15907 2.56093,-5.72 5.72,-5.72 3.15907,0 5.72,2.56093 5.72,5.72 z" />
    </g>
    <g
       font-size="16"
       stroke-linecap="butt"
       transform="matrix(1,0,0,1,-136,-139)"
       fill="rgb(89,129,170)"
       font-family="'DejaVu Sans'"
       stroke="rgb(89,129,170)"
       stroke-miterlimit="1.45"
       id="g88">
      <text
         x="167.7422"
         xml:space="preserve"
         y="181.5391"
         clip-path="url(#clipPath2)"
         stroke="none"
         id="text90">s<tspan
   style="font-size:65%;baseline-shift:sub"
   id="tspan3127">1</tspan></text>
      <circle
         fill="none"
         stroke-width="2"
         r="23"
         clip-path="url(#clipPath2)"
         cx="177"
         cy="176"
         id="circle92"
         d="m 200,176 c 0,12.70255 -10.29745,23 -23,23 -12.70255,0 -23,-10.29745 -23,-23 0,-12.70255 10.29745,-23 23,-23 12.70255,0 23,10.29745 23,23 z" />
      <text
         fill="rgb(72,135,72)"
         x="167.7422"
         xml:space="preserve"
         y="241.5391"
         clip-path="url(#clipPath2)"
         stroke="none"
         id="text94">s<tspan
   style="font-size:65%;baseline-shift:sub"
   id="tspan3129">2</tspan></text>
    </g>
    <g
       fill="rgb(72,135,72)"
       stroke-width="2"
       stroke-miterlimit="1.45"
       transform="matrix(1,0,0,1,-136,-139)"
       stroke-linecap="butt"
       stroke="rgb(72,135,72)"
       id="g96">
      <circle
         fill="none"
         r="23"
         clip-path="url(#clipPath2)"
         cx="177"
         cy="236"
         id="circle98"
         d="m 200,236 c 0,12.70255 -10.29745,23 -23,23 -12.70255,0 -23,-10.29745 -23,-23 0,-12.70255 10.29745,-23 23,-23 12.70255,0 23,10.29745 23,23 z" />
    </g>
    <g
       font-size="16"
       stroke-linecap="butt"
       transform="matrix(1,0,0,1,-136,-139)"
       fill="rgb(255,127,42)"
       font-family="'DejaVu Sans'"
       stroke="rgb(255,127,42)"
       stroke-miterlimit="1.45"
       id="g100">
      <text
         x="167.7422"
         xml:space="preserve"
         y="301.5391"
         clip-path="url(#clipPath2)"
         stroke="none"
         id="text102">s<tspan
   style="font-size:65%;baseline-shift:sub"
   id="tspan3131">3</tspan></text>
      <circle
         fill="none"
         stroke-width="2"
         r="23"
         clip-path="url(#clipPath2)"
         cx="177"
         cy="296"
         id="circle104"
         d="m 200,296 c 0,12.70255 -10.29745,23 -23,23 -12.70255,0 -23,-10.29745 -23,-23 0,-12.70255 10.29745,-23 23,-23 12.70255,0 23,10.29745 23,23 z" />
    </g>
    <g
       stroke-linecap="butt"
       transform="matrix(1,0,0,1,-136,-139)"
       stroke-miterlimit="1.45"
       id="g106">
      <path
         fill="none"
         d="M363.2808 181.1148 L384.6177 223.7317"
         clip-path="url(#clipPath2)"
         id="path108" />
      <path
         d="M388.1992 230.8852 L387.2979 217.9165 L384.17 222.8375 L378.356 222.3934 Z"
         clip-path="url(#clipPath2)"
         stroke="none"
         id="path110" />
    </g>
    <g
       font-size="16"
       stroke-linecap="butt"
       transform="matrix(1,0,0,1,-136,-139)"
       fill="rgb(89,129,170)"
       font-family="sans-serif"
       stroke="rgb(89,129,170)"
       stroke-miterlimit="1.45"
       id="g112">
      <text
         x="347.5606"
         xml:space="preserve"
         y="211.5391"
         clip-path="url(#clipPath2)"
         stroke="none"
         id="text114">s<tspan
   style="font-size:65%;baseline-shift:sub"
   id="tspan3141">1</tspan></text>
    </g>
    <g
       stroke-linecap="butt"
       transform="matrix(1,0,0,1,-136,-139)"
       stroke-miterlimit="1.45"
       id="g116">
      <path
         fill="none"
         d="M482.1058 230.6154 L497.0511 188.9155"
         clip-path="url(#clipPath2)"
         id="path118" />
      <path
         d="M499.7502 181.3846 L490.9947 190.9941 L496.7137 189.8569 L500.4084 194.3679 Z"
         clip-path="url(#clipPath2)"
         stroke="none"
         id="path120" />
    </g>
    <g
       font-size="16"
       stroke-linecap="butt"
       transform="matrix(1,0,0,1,-136,-139)"
       fill="rgb(72,135,72)"
       font-family="sans-serif"
       stroke="rgb(72,135,72)"
       stroke-miterlimit="1.45"
       id="g122">
      <text
         x="464.358"
         xml:space="preserve"
         y="211.5391"
         clip-path="url(#clipPath2)"
         stroke="none"
         id="text124">s<tspan
   style="font-size:65%;baseline-shift:sub"
   id="tspan3153">2</tspan></text>
    </g>
    <g
       fill="rgb(255,127,42)"
       stroke-width="2"
       stroke-miterlimit="1.45"
       transform="matrix(1,0,0,1,-136,-139)"
       stroke-linecap="butt"
       stroke="rgb(255,127,42)"
       id="g126">
      <path
         fill="none"
         d="M230 296 L536 296"
         clip-path="url(#clipPath2)"
         id="path128" />
      <path
         d="M545 296 L531.5 290.375 L534.875 296 L531.5 301.625 Z"
         clip-path="url(#clipPath2)"
         stroke="none"
         id="path130" />
      <path
         fill="none"
         d="M230 236 L536 236"
         clip-path="url(#clipPath2)"
         stroke="rgb(72,135,72)"
         id="path132" />
      <path
         fill="rgb(72,135,72)"
         d="M545 236 L531.5 230.375 L534.875 236 L531.5 241.625 Z"
         clip-path="url(#clipPath2)"
         stroke="none"
         id="path134" />
      <path
         fill="none"
         d="M230 176 L536 176"
         clip-path="url(#clipPath2)"
         stroke="rgb(89,129,170)"
         id="path136" />
      <path
         fill="rgb(89,129,170)"
         d="M545 176 L531.5 170.375 L534.875 176 L531.5 181.625 Z"
         clip-path="url(#clipPath2)"
         stroke="none"
         id="path138" />
      <path
         fill="none"
         stroke-width="1"
         d="M438.3802 240.9232 L463.9748 284.1913"
         clip-path="url(#clipPath2)"
         stroke="black"
         id="path140" />
      <path
         fill="black"
         stroke-width="1"
         d="M468.0478 291.0768 L466.2417 278.2029 L463.4656 283.3306 L457.6348 283.2942 Z"
         clip-path="url(#clipPath2)"
         stroke="none"
         id="path142" />
    </g>
    <g
       font-size="16"
       stroke-linecap="butt"
       transform="matrix(1,0,0,1,-136,-139)"
       fill="rgb(72,135,72)"
       font-family="sans-serif"
       stroke="rgb(72,135,72)"
       stroke-miterlimit="1.45"
       id="g144">
      <text
         x="463.9057"
         xml:space="preserve"
         y="271.5391"
         clip-path="url(#clipPath2)"
         stroke="none"
         id="text146">s<tspan
   style="font-size:65%;baseline-shift:sub"
   id="tspan3161">2</tspan></text>
    </g>
  </g>
</svg>
